
<svg width="529" height="345" viewBox="0 0 529 345" xmlns="http://www.w3.org/2000/svg" xmlns:xlink="http://www.w3.org/1999/xlink"><title>1</title><desc>Created with Sketch.</desc><defs><linearGradient x1="49.6689957%" y1="74.9963732%" x2="49.6689957%" y2="18.3572408%" id="linearGradient-1"><stop stop-color="#fff" stop-opacity="0" offset="21%"/><stop stop-color="#fff" stop-opacity=".2" offset="100%"/></linearGradient><linearGradient x1="50.6572141%" y1="19.5668839%" x2="50.6572141%" y2="59.767201%" id="linearGradient-2"><stop stop-color="#e9eaf2" stop-opacity=".8" offset="0"/><stop stop-color="#e9eaf2" stop-opacity="0" offset="100%"/></linearGradient></defs><g id="Agency-2" stroke="none" stroke-width="1" fill="none" fill-rule="evenodd"><g id="Agency-1" transform="translate(-360.000000, -4698.000000)"><g id="1" transform="translate(360.000000, 4698.000000)"><path id="Rectangle-Copy-22" fill="#f9f9f9" d="M0 0h529v344.696798H0z"/><g id="app_development_SVG" transform="translate(123.532957, 21.917137)"><g id="Laptop" transform="translate(3.348288, 16.714585)"><path d="M268.649984 214.546776 117.340746 127.432206C115.216959 126.225633 113.498568 122.931689 113.498568 120.114341V3.39650296C113.498568.57312217 115.216959-.723943793 117.340746.50072779L268.649984 87.6152976C270.773771 88.8218706 272.492415 92.1158148 272.492415 94.9331628V211.651001C272.516366 214.474382 270.797974 215.771448 268.649984 214.546776z" id="Path" fill="#b1b4c4" fill-rule="nonzero"/><path id="Path" fill="#b1b4c4" fill-rule="nonzero" d="M269.454724 215.753349 271.130761 214.788091 270.40468 209.835109z"/><path d="M113.226287 1.20657299 114.878122.253380328 117.249986 1.60474208C117.249986 1.60474208 114.720804 1.98481257 114.660297 1.97274684 114.59979 1.96068111 113.226287 1.20657299 113.226287 1.20657299z" id="Path" fill="#b1b4c4" fill-rule="nonzero"/><path d="M267.288582 215.373279 115.955142 128.234577C113.831355 127.028004 112.106912 123.73406 112.106912 120.910679V4.22300546C112.106912 1.39962467 113.831355.102558704 115.955142 1.32723029L267.288582 88.4418001C269.412369 89.6483731 271.130761 92.9423173 271.130761 95.7656981V212.453372C271.130761 215.27072 269.412369 216.579852 267.288582 215.373279z" id="Path" fill="#e4e7f2" fill-rule="nonzero"/><path d="M267.022352 215.499969 115.688912 128.385399C113.565125 127.178826 111.840683 123.884882 111.840683 121.061501V4.34366276C111.840683 1.52631483 113.565125.229248868 115.688912 1.44788759L267.022352 88.5624574C269.140089 89.7690304 270.864531 93.0629746 270.864531 95.8863554V212.604194C270.864531 215.427574 269.140089 216.72464 267.022352 215.499969z" id="Path" fill="#d6d8e5" fill-rule="nonzero"/><path d="M268.783099 208.399287 113.752696 119.167181 113.843456 4.82629196C113.843456 3.65591616 114.666348 3.17931983 115.658659 3.76450773L266.992099 90.8790775C268.069609 91.5909347 268.743467 92.7711935 268.807302 94.0583974L268.783099 208.399287z" id="Path" fill="#fff" fill-rule="nonzero"/><path d="M268.734693 208.40532 113.752696 119.173214 113.801101 4.82629196C113.801101 3.65591616 114.623993 3.17931983 115.616304 3.76450773L266.949744 90.8790775C268.026525 91.591614 268.700154 92.771472 268.764947 94.0583974L268.734693 208.40532z" id="Path" fill="url(#linearGradient-1)" fill-rule="nonzero" opacity=".5"/><path d="M152.882413 283.321436 1.54897288 196.206867C-.574814155 195.000294-.308584441 192.852594 2.15404041 191.440903L103.533105 133.078968C105.953375 131.67331 109.692693 131.516456 111.810429 132.741127L263.14992 219.855697C265.267656 221.06227 265.001427 223.20997 262.544853 224.62166L161.159737 282.983596C158.709214 284.389253 155.00015 284.546108 152.882413 283.321436z" id="Path" fill="#d6d8e5" fill-rule="nonzero" opacity=".4"/><path d="M156.186082 281.342657 4.84054025 194.258251C2.71675322 193.051678 2.98298293 190.903978 5.44560778 189.492288L106.824673 131.136385C109.244943 129.724695 112.98426 129.56784 115.108047 130.792512L266.441488 217.907082C268.565275 219.113655 268.299045 221.261355 265.83642 222.673045L164.469456 281.004816C162.018933 282.410474 158.309869 282.567328 156.186082 281.342657z" id="Path" fill="#b1b4c4" fill-rule="nonzero"/><path id="Path" fill="#b1b4c4" fill-rule="nonzero" d="M3.41863155 192.261373V189.413861L6.62548947 190.753157z"/><path id="Path" fill="#b1b4c4" fill-rule="nonzero" d="M267.875498 220.006519V217.225368L265.503633 218.039805 267.076808 220.344359z"/><path d="M156.186082 278.947609 4.84054025 191.845105C2.71675322 190.638532 2.98298293 188.490832 5.44560778 187.079142L106.824673 128.717206C109.244943 127.305516 112.98426 127.154694 115.108047 128.379366L266.441488 215.493936C268.565275 216.700509 268.299045 218.848209 265.83642 220.259899L164.469456 278.603736C162.018933 280.015426 158.309869 280.172281 156.186082 278.947609z" id="Path" fill="#e4e7f2" fill-rule="nonzero"/><path d="M156.186082 278.579605 4.84054025 191.465035C2.71675322 190.258462 2.98298293 188.104729 5.44560778 186.699071L106.824673 128.337136C109.244943 126.925446 112.98426 126.774624 115.108047 127.993263l151.333441 87.120602C268.565275 216.320438 268.299045 218.468138 265.83642 219.879829L164.469456 278.235731C162.018933 279.647422 158.309869 279.798243 156.186082 278.579605z" id="Path" fill="#d6d8e5" fill-rule="nonzero"/><path d="M104.017159 148.022374 96.9741733 143.968289C96.3691057 143.636481 96.4719672 143.057326 97.1314908 142.677256L103.859842 138.804157C104.549418 138.421524 105.380213 138.387942 106.098592 138.713664L113.147628 142.767749C113.722443 143.099556 113.649834 143.678712 112.98426 144.058782L106.26196 147.931881C105.570241 148.314621 104.73761 148.348187 104.017159 148.022374z" id="Path" fill="#2b303f" fill-rule="nonzero"/><path d="M113.994723 153.765662 106.945686 149.705544C106.370872 149.379769 106.44348 148.800614 107.109054 148.414511L113.831355 144.547444C114.523073 144.164704 115.355704 144.131139 116.076155 144.456951L123.119141 148.511036C123.724209 148.842844 123.621347 149.421999 122.961824 149.802069L116.233473 153.669136C115.545696 154.056601 114.713479 154.092483 113.994723 153.765662z" id="Path" fill="#2b303f" fill-rule="nonzero"/><path d="M124.081199 159.575311 117.038213 155.515193C116.433145 155.183385 116.536007 154.60423 117.19553 154.224159L123.923881 150.357093C124.611658 149.969628 125.443875 149.933746 126.162631 150.260567L133.211668 154.320685C133.816735 154.64646 133.713874 155.225615 133.0483 155.611718L126.325999 159.478785C125.634187 159.859707 124.803334 159.895434 124.081199 159.575311v0z" id="Path" fill="#2b303f" fill-rule="nonzero"/><path d="M133.943799 165.246204 126.894763 161.192118C126.319949 160.860311 126.392557 160.281156 127.058131 159.901085L133.780431 156.027986C134.47215 155.645246 135.304781 155.611681 136.025232 155.937493L143.074269 159.991578C143.649083 160.323386 143.576475 160.902541 142.9109 161.282611L136.1886 165.155711C135.496881 165.538451 134.66425 165.572016 133.943799 165.246204z" id="Path" fill="#2b303f" fill-rule="nonzero"/><path d="M143.921363 170.989491 136.872326 166.935406C136.267259 166.603598 136.37012 166.024443 137.035695 165.644373L143.757995 161.771273C144.449713 161.388533 145.282344 161.354968 146.002795 161.680781L153.045781 165.734866C153.620596 166.066673 153.547987 166.645828 152.882413 167.025899L146.160113 170.898998C145.470536 171.281631 144.639742 171.315212 143.921363 170.989491v0z" id="Path" fill="#2b303f" fill-rule="nonzero"/><path d="M153.892876 176.762943 146.84989 172.708858C146.275076 172.37705 146.341633 171.797895 147.007207 171.417825L153.729508 167.544725C154.421226 167.161985 155.253857 167.12842 155.974308 167.454232L163.023345 171.508318C163.598159 171.840125 163.525551 172.41928 162.859977 172.799351L156.137677 176.67245C155.445958 177.05519 154.613327 177.088755 153.892876 176.762943v0z" id="Path" fill="#2b303f" fill-rule="nonzero"/><path d="M163.87044 182.476066 156.821403 178.421981C156.246589 178.090173 156.319197 177.511018 156.984771 177.130948L163.707071 173.257848C164.39879 172.875108 165.231421 172.841543 165.951872 173.167355L172.994858 177.221441C173.569672 177.553248 173.497064 178.132403 172.83754 178.512474L166.109189 182.37954C165.421413 182.767005 164.589196 182.802887 163.87044 182.476066z" id="Path" fill="#2b303f" fill-rule="nonzero"/><path d="M173.841952 188.225386 166.798966 184.165268C166.224152 183.833461 166.29676 183.260338 166.956284 182.874235L173.684635 179.007169C174.372412 178.619703 175.204629 178.583822 175.923385 178.910643L182.972422 182.970761C183.577489 183.302568 183.474628 183.875691 182.809053 184.261794L176.074652 188.122828C175.388894 188.508285 174.560351 188.546344 173.841952 188.225386z" id="Path" fill="#2b303f" fill-rule="nonzero"/><path d="M183.819516 193.956608 176.770479 189.902523C176.195665 189.570715 176.268273 188.99156 176.933848 188.61149L183.656148 184.744423C184.346075 184.356865 185.180118 184.321001 185.900948 184.647897L192.943934 188.708015C193.518749 189.03379 193.446141 189.612945 192.786617 189.999049L186.064317 193.866115C185.372598 194.248855 184.539967 194.28242 183.819516 193.956608v0z" id="Path" fill="#2b303f" fill-rule="nonzero"/><path d="M193.791029 199.68783 186.748043 195.633744C186.173229 195.301937 186.245837 194.722782 186.90536 194.342711L193.62161 190.481678C194.311187 190.099045 195.141981 190.065463 195.86036 190.391185L202.909397 194.44527C203.484211 194.777078 203.411603 195.356233 202.746028 195.736303L196.04188 199.609402C195.346614 199.990284 194.511266 200.019391 193.791029 199.68783v0z" id="Path" fill="#2b303f" fill-rule="nonzero"/><path d="M203.768593 205.443183 196.719556 201.389098C196.144742 201.05729 196.21735 200.478135 196.882924 200.098064L203.605224 196.224965C204.296943 195.842225 205.129574 195.80866 205.850025 196.134472L212.899062 200.188557C213.473876 200.520365 213.401268 201.09952 212.735693 201.479591L206.013393 205.35269C205.321675 205.73543 204.489043 205.768995 203.768593 205.443183z" id="Path" fill="#2b303f" fill-rule="nonzero"/><path d="M213.746156 211.18647 206.697119 207.132385C206.122305 206.800577 206.194913 206.221422 206.860488 205.841352L213.588839 201.968253C214.280557 201.585512 215.113188 201.551947 215.833639 201.87776L222.876625 205.931845C223.481693 206.263652 223.378831 206.842807 222.713257 207.222878L216.009109 211.095977C215.313137 211.486734 214.471278 211.520399 213.746156 211.18647z" id="Path" fill="#2b303f" fill-rule="nonzero"/><path d="M223.717669 216.929758 216.674683 212.86964C216.069616 212.537832 216.166426 211.96471 216.832001 211.578606L223.554301 207.71154C224.245049 207.326858 225.077701 207.291054 225.799101 207.615014L232.848138 211.675132C233.422952 212.00694 233.350344 212.580062 232.68477 212.966165L225.96247 216.833232C225.272542 217.22079 224.4385 217.256654 223.717669 216.929758z" id="Path" fill="#2b303f" fill-rule="nonzero"/><path d="M238.499469 225.436097 226.646196 218.612927C226.071382 218.281119 226.14399 217.701964 226.809564 217.321894L233.556067 213.454827C234.245995 213.067269 235.080037 213.031405 235.800868 213.358302L247.623887 220.19957C248.198701 220.531378 248.126093 221.110533 247.46657 221.490604L240.738219 225.363703C240.04573 225.740528 239.214991 225.767392 238.499469 225.436097z" id="Path" fill="#2b303f" fill-rule="nonzero"/><path d="M109.148132 162.103081 102.099095 158.061062C101.494028 157.729254 101.596889 157.150099 102.262464 156.770028L108.984764 152.896929C109.676482 152.514189 110.509113 152.480624 111.229564 152.806436L118.27255 156.854489C118.847365 157.186296 118.774756 157.765451 118.115233 158.145522L111.386882 162.018621C110.696334 162.399315 109.865559 162.430657 109.148132 162.103081z" id="Path" fill="#2b303f" fill-rule="nonzero"/><path d="M119.137797 167.858434 112.094811 163.804349C111.519997 163.472541 111.592605 162.893386 112.252128 162.513316L118.980479 158.664348C119.670056 158.281716 120.500851 158.248134 121.219229 158.573855L128.274317 162.603809C128.849131 162.935616 128.776523 163.514771 128.110948 163.894842L121.388648 167.767941C120.695325 168.152697 119.859939 168.186283 119.137797 167.858434z" id="Path" fill="#2b303f" fill-rule="nonzero"/><path d="M129.133513 173.607755 122.084476 169.553669C121.479408 169.221862 121.58227 168.642707 122.247844 168.262636L128.970144 164.389537C129.661863 164.006797 130.494494 163.973231 131.214945 164.299044L138.257931 168.353129C138.832745 168.684937 138.760137 169.264092 138.100613 169.644162L131.372262 173.517262C130.682686 173.899894 129.851891 173.933476 129.133513 173.607755z" id="Path" fill="#2b303f" fill-rule="nonzero"/><path d="M139.123178 179.363108 132.074141 175.30299C131.499327 174.977215 131.571935 174.39806 132.237509 174.011956L138.959809 170.126791C139.650558 169.74211 140.48321 169.706306 141.20461 170.030266L148.241545 174.108482C148.816359 174.44029 148.743751 175.013412 148.078177 175.399515L141.355877 179.266582C140.669146 179.650095 139.840625 179.685914 139.123178 179.363108z" id="Path" fill="#2b303f" fill-rule="nonzero"/><path d="M149.034184 185.070198 141.991198 180.985948C141.416383 180.654141 141.488992 180.081019 142.148515 179.694915L148.876866 175.827849C149.564643 175.440384 150.39686 175.404502 151.115616 175.731323L158.164653 179.791441C158.76972 180.117216 158.666859 180.696371 158.001285 181.082474L151.266883 184.973672C150.579345 185.354345 149.752189 185.390105 149.034184 185.070198z" id="Path" fill="#2b303f" fill-rule="nonzero"/><path d="M159.029899 190.819518 151.980863 186.765433C151.406048 186.433625 151.478657 185.85447 152.144231 185.4744L158.866531 181.589235C159.55825 181.206495 160.390881 181.172929 161.111332 181.498742L168.154318 185.552827C168.729132 185.884635 168.656524 186.46379 167.997 186.84386L161.268649 190.716959C160.581019 191.103478 159.75018 191.141539 159.029899 190.819518z" id="Path" fill="#2b303f" fill-rule="nonzero"/><path d="M169.019564 196.568838 161.970528 192.514753C161.395713 192.182946 161.468321 191.603791 162.133896 191.22372L168.856196 187.356654C169.546124 186.969095 170.380166 186.933232 171.100997 187.260128L178.150033 191.320246C178.724847 191.646021 178.652239 192.225176 177.986665 192.611279L171.264365 196.478346C170.572646 196.861086 169.740015 196.894651 169.019564 196.568838v0z" id="Path" fill="#2b303f" fill-rule="nonzero"/><path d="M179.009229 202.324192 171.966243 198.270106C171.391429 197.938299 171.464037 197.359144 172.129611 196.979073L178.851912 193.105974C179.541488 192.723341 180.372283 192.68976 181.090662 193.015481L188.139698 197.069566C188.714512 197.401374 188.641904 197.980529 187.97633 198.360599L181.25403 202.233699C180.562311 202.616439 179.72968 202.650004 179.009229 202.324192z" id="Path" fill="#2b303f" fill-rule="nonzero"/><path d="M189.004945 208.073512 181.955908 204.019427C181.350841 203.687619 181.453702 203.108464 182.119276 202.728394L188.841577 198.855294C189.533295 198.472554 190.365926 198.438989 191.086377 198.764801L198.129363 202.818887C198.704177 203.150694 198.63762 203.729849 197.972046 204.10992L191.249745 207.983019C190.558027 208.365759 189.725396 208.399324 189.004945 208.073512z" id="Path" fill="#2b303f" fill-rule="nonzero"/><path d="M198.99461 213.828865 191.951624 209.768747C191.37681 209.442972 191.449418 208.863817 192.108941 208.477714L198.837292 204.610647C199.526703 204.228915 200.356154 204.193153 201.076042 204.514122L208.143231 208.57424C208.718045 208.906047 208.645437 209.485202 207.979863 209.865273L201.257562 213.732339C200.562859 214.126018 199.720497 214.161949 198.99461 213.828865z" id="Path" fill="#2b303f" fill-rule="nonzero"/><path d="M208.990325 219.596284 201.941289 215.542199C201.366474 215.210391 201.439083 214.631236 202.104657 214.251166L208.826957 210.378066C209.518676 209.995326 210.351307 209.961761 211.071758 210.287573L218.114744 214.341659C218.689558 214.673466 218.61695 215.252621 217.957426 215.632692L211.229075 219.505791C210.539499 219.888424 209.708704 219.922005 208.990325 219.596284z" id="Path" fill="#2b303f" fill-rule="nonzero"/><path d="M218.97999 225.333539 211.937004 221.27342C211.36219 220.941613 211.428748 220.368491 212.094322 219.982387L218.816622 216.115321C219.50737 215.730639 220.340023 215.694835 221.061423 216.018795L228.110459 220.078913C228.685274 220.410721 228.612665 220.983843 227.947091 221.369946L221.224791 225.237013C220.534863 225.624571 219.700821 225.660435 218.97999 225.333539z" id="Path" fill="#2b303f" fill-rule="nonzero"/><path d="M99.1524164 156.353761 87.3051941 149.530591C86.73038 149.198783 86.8029881 148.625661 87.4625117 148.239557L94.1908626 144.372491C94.8786395 143.985026 95.7108563 143.949144 96.4296125 144.275965L108.307088 151.099135C108.881902 151.430943 108.809294 152.010098 108.14372 152.390169L101.397217 156.251202C100.70744 156.637828 99.8747651 156.675871 99.1524164 156.353761z" id="Path" fill="#2b303f" fill-rule="nonzero"/><path d="M238.015415 225.804102 230.972429 221.750017C230.31506 221.414876 229.536264 221.414876 228.878895 221.750017L221.775402 225.840299C221.170335 226.172107 221.170335 226.709032 221.775402 227.046872L222.338115 227.372647C222.870575 227.67429 222.864524 228.175018 222.338115 228.482694L214.798974 232.802225C214.193906 233.140066 214.193906 233.676991 214.798974 234.008798L219.282524 236.590865C219.93849 236.922972 220.714041 236.922972 221.370007 236.590865L228.400892 232.548845 229.853054 231.710277 230.899821 231.10699 231.952638 230.503704 238.003314 227.022741C238.590229 226.672835 238.590229 226.13591 238.015415 225.804102z" id="Path" fill="#2b303f" fill-rule="nonzero"/><path d="M65.3835975 170.307777 58.3406114 166.253692C57.7355439 165.921885 57.8384053 165.34273 58.4979289 164.962659L65.2262799 161.077494C65.9158566 160.694861 66.7466513 160.66128 67.4650298 160.987001L74.5140665 165.041086C75.0888807 165.372894 75.0162726 165.952049 74.3506983 166.332119L67.628398 170.205219C66.938621 170.591845 66.1059461 170.629888 65.3835975 170.307777z" id="Path" fill="#2b303f" fill-rule="nonzero"/><path d="M75.3309077 176.032966 68.2879216 171.978881C67.6828541 171.647073 67.7857156 171.067918 68.4452392 170.687848L75.1735901 166.814749C75.8631668 166.432116 76.6939615 166.398534 77.41234 166.724256L84.4613767 170.778341C85.0361909 171.110148 84.9635828 171.689303 84.2980085 172.069374L77.5757082 175.942473C76.8839896 176.325213 76.0513585 176.358779 75.3309077 176.032966z" id="Path" fill="#2b303f" fill-rule="nonzero"/><path d="M85.2782179 181.758155 78.2352318 177.70407C77.6301643 177.372262 77.7269751 176.793107 78.3925494 176.413037L85.1148497 172.539937C85.8065683 172.157197 86.6391993 172.123632 87.3596502 172.449444L94.3905349 176.50353C94.9653491 176.835337 94.892741 177.414492 94.2271667 177.794563L87.5048664 181.667662C86.817976 182.044397 85.9935813 182.077901 85.2782179 181.758155z" id="Path" fill="#2b303f" fill-rule="nonzero"/><path d="M169.987672 230.521802 162.938636 226.461684C162.333568 226.13591 162.43643 225.556755 163.102004 225.170651L169.824304 221.303585C170.515052 220.918903 171.347705 220.883099 172.069105 221.207059L179.099989 225.267177C179.705057 225.598985 179.602195 226.172107 178.936621 226.55821L172.226422 230.455441C171.533751 230.833235 170.70163 230.857901 169.987672 230.521802z" id="Path" fill="#2b303f" fill-rule="nonzero"/><path d="M179.928932 236.246991 172.885946 232.192906C172.280878 231.861098 172.38374 231.281943 173.043263 230.901873L179.771614 227.028774C180.461191 226.646141 181.291986 226.612559 182.010364 226.938281L189.059401 230.992366C189.664468 231.324173 189.561607 231.903328 188.896033 232.283399L182.173732 236.156498C181.482014 236.539238 180.649383 236.572804 179.928932 236.246991v0z" id="Path" fill="#2b303f" fill-rule="nonzero"/><path d="M189.876242 241.97218 182.833256 237.918095C182.258442 237.586287 182.33105 237.007132 182.990574 236.627062L189.718925 232.753962C190.408501 232.37133 191.239296 232.337748 191.957674 232.663469L199.006711 236.717555C199.611779 237.049362 199.508917 237.628517 198.843343 238.008588L192.121043 241.881687C191.429324 242.264427 190.596693 242.297993 189.876242 241.97218z" id="Path" fill="#2b303f" fill-rule="nonzero"/><path d="M199.823552 247.697369 192.780566 243.643284C192.205752 243.311476 192.27836 242.732321 192.937884 242.352251L199.672285 238.479151C200.361862 238.096519 201.192657 238.062937 201.911035 238.388658L208.960072 242.442744C209.56514 242.774551 209.462278 243.353706 208.796704 243.733777L202.092556 247.606876C201.394433 247.997718 200.550754 248.031366 199.823552 247.697369v0z" id="Path" fill="#2b303f" fill-rule="nonzero"/><path d="M97.7849638 188.961396 88.1764914 183.429259C87.6016772 183.097451 87.6742853 182.518296 88.3398596 182.138226L95.0621599 178.265126C95.7538785 177.882386 96.5865095 177.848821 97.3069604 178.174633L106.915433 183.70677C107.5205 184.038578 107.417639 184.6117 106.752065 184.997804L100.029764 188.86487C99.3398367 189.252428 98.5057944 189.288292 97.7849638 188.961396v0z" id="Path" fill="#2b303f" fill-rule="nonzero"/><path d="M160.040362 224.796614 150.43189 219.264476C149.826822 218.932669 149.929684 218.353514 150.589207 217.973443L157.317558 214.100344C158.007135 213.717711 158.83793 213.68413 159.556308 214.009851L169.16478 219.541988C169.739595 219.873796 169.666987 220.446918 169.007463 220.833021L162.279112 224.700088C161.591335 225.087553 160.759118 225.123435 160.040362 224.796614v0z" id="Path" fill="#2b303f" fill-rule="nonzero"/><path d="M147.527566 217.593373 100.689288 190.638532C100.114474 190.306725 100.187082 189.72757 100.846605 189.347499L107.574956 185.4744C108.264533 185.091767 109.095328 185.058186 109.813706 185.383907L156.658035 212.356846C157.232849 212.688654 157.160241 213.267809 156.494666 213.647879L149.772366 217.520978C149.077743 217.89791 148.245167 217.924761 147.527566 217.593373v0z" id="Path" fill="#2b303f" fill-rule="nonzero"/><path d="M102.189855 169.233927 95.1468693 165.179842C94.5720552 164.848035 94.6446633 164.26888 95.3102376 163.888809L102.032538 160.01571C102.722115 159.633077 103.552909 159.599496 104.271288 159.925217L111.332426 163.979302C111.937493 164.31111 111.834632 164.890265 111.169058 165.270335L104.446757 169.143434C103.751832 169.530212 102.913686 169.563819 102.189855 169.233927z" id="Path" fill="#2b303f" fill-rule="nonzero"/><path d="M112.155318 174.953083 105.112332 170.892965C104.537517 170.561158 104.610126 169.988036 105.269649 169.601932L111.998 165.734866C112.686604 165.350292 113.51742 165.31447 114.23675 165.63834L121.285787 169.698458C121.890854 170.030266 121.787993 170.603388 121.122418 170.989491L114.400118 174.856558C113.710191 175.244116 112.876148 175.27998 112.155318 174.953083z" id="Path" fill="#2b303f" fill-rule="nonzero"/><path d="M122.12078 180.702404 115.071743 176.648318C114.466676 176.316511 114.569537 175.737356 115.235111 175.357285L121.957412 171.484186C122.64913 171.101446 123.481761 171.067881 124.202212 171.393693L131.245198 175.447778C131.850266 175.779586 131.753455 176.358741 131.087881 176.738811L124.36558 180.611911C123.673862 180.994651 122.841231 181.028216 122.12078 180.702404z" id="Path" fill="#2b303f" fill-rule="nonzero"/><path d="M132.086242 186.415527 125.037205 182.361442C124.432138 182.029634 124.534999 181.450479 125.200574 181.070408L131.904722 177.221441C132.59644 176.8387 133.429072 176.805135 134.149522 177.130948L141.192508 181.185033C141.797576 181.51684 141.694715 182.095995 141.035191 182.476066L134.324992 186.349165C133.631535 186.72406 132.800812 186.748685 132.086242 186.415527z" id="Path" fill="#2b303f" fill-rule="nonzero"/><path d="M142.045654 192.176913 135.002668 188.122828C134.3976 187.79102 134.500462 187.211865 135.159985 186.831794L141.888336 182.958695C142.577913 182.576063 143.408708 182.542481 144.127086 182.868202L151.176123 186.922287C151.78119 187.254095 151.678329 187.83325 151.012755 188.213321L144.290454 192.08642C143.598736 192.46916 142.766105 192.502725 142.045654 192.176913z" id="Path" fill="#2b303f" fill-rule="nonzero"/><path d="M152.011116 197.914167 144.96813 193.854049C144.363062 193.522242 144.459873 192.94912 145.125447 192.563016L151.87195 188.69595C152.561878 188.308391 153.39592 188.272528 154.116751 188.599424L161.165788 192.659542C161.740602 192.99135 161.667994 193.564472 161.002419 193.950575L154.280119 197.817642C153.583828 198.213374 152.738684 198.249327 152.011116 197.914167z" id="Path" fill="#2b303f" fill-rule="nonzero"/><path d="M161.976578 203.645389 154.927541 199.591304C154.352727 199.259496 154.425335 198.680341 155.09091 198.300271L161.81321 194.427171C162.504929 194.044431 163.33756 194.010866 164.05801 194.336678L171.100997 198.390764C171.706064 198.722571 171.603203 199.301726 170.943679 199.681797L164.215328 203.554896C163.525751 203.937529 162.694957 203.97111 161.976578 203.645389v0z" id="Path" fill="#2b303f" fill-rule="nonzero"/><path d="M171.94204 209.382644 164.893004 205.328558C164.31819 204.996751 164.390798 204.417596 165.056372 204.037525L171.778672 200.164426C172.470391 199.781686 173.303022 199.748121 174.023473 200.073933L181.066459 204.128018C181.641273 204.459826 181.568665 205.038981 180.903091 205.419051L174.18079 209.292151C173.491214 209.674783 172.660419 209.708365 171.94204 209.382644z" id="Path" fill="#2b303f" fill-rule="nonzero"/><path d="M181.901452 215.119898 174.864517 211.065813C174.289702 210.734005 174.362311 210.15485 175.021834 209.77478L181.750185 205.901681C182.439762 205.519048 183.270556 205.485466 183.988935 205.811188L191.037972 209.865273C191.612786 210.19708 191.540178 210.776235 190.874603 211.156306L184.152303 215.029405C183.45898 215.414161 182.623594 215.447747 181.901452 215.119898v0z" id="Path" fill="#2b303f" fill-rule="nonzero"/><path d="M191.866914 220.857153 184.817878 216.797035C184.243063 216.465227 184.315671 215.892105 184.981246 215.506002L191.703546 211.638935C192.393474 211.251377 193.227516 211.215513 193.948347 211.542409L200.997383 215.602527C201.572197 215.928302 201.499589 216.507457 200.834015 216.89356L194.111715 220.760627C193.420966 221.145309 192.588314 221.181113 191.866914 220.857153z" id="Path" fill="#2b303f" fill-rule="nonzero"/><path d="M201.832376 226.588374 194.78334 222.534289C194.208526 222.202482 194.281134 221.623327 194.946708 221.243256L201.669008 217.370157C202.360727 216.987417 203.193358 216.953851 203.913809 217.279664L210.956795 221.333749C211.561862 221.665557 211.459001 222.244712 210.799477 222.624782L204.071126 226.497881C203.38155 226.880514 202.550755 226.914096 201.832376 226.588374z" id="Path" fill="#2b303f" fill-rule="nonzero"/><path d="M211.773636 232.325629 204.73065 228.271544C204.155836 227.939736 204.228444 227.360581 204.894018 226.980511L211.616318 223.107411C212.305895 222.724779 213.13669 222.691197 213.855068 223.016918L220.904105 227.071004C221.478919 227.402811 221.406311 227.981966 220.740737 228.362037L214.036589 232.2653C213.335183 232.64445 212.49436 232.666866 211.773636 232.325629v0z" id="Path" fill="#2b303f" fill-rule="nonzero"/><path d="M92.2304438 163.49064 77.654367 155.104958C77.0492995 154.77315 77.1521609 154.193995 77.8177352 153.813925L84.5400355 149.940825C85.2317541 149.558085 86.0643852 149.52452 86.784836 149.850332L101.354862 158.236015C101.95993 158.567822 101.857068 159.146977 101.197545 159.527048L94.4691937 163.400147C93.779617 163.78278 92.9488223 163.816361 92.2304438 163.49064v0z" id="Path" fill="#2b303f" fill-rule="nonzero"/><path d="M87.5774745 171.936651 80.5344884 167.894631C79.9596743 167.562824 80.0262317 166.989702 80.691806 166.603598L87.4141063 162.736532C88.1040339 162.348973 88.9380762 162.31311 89.6589068 162.640006L96.7079436 166.700124C97.2827577 167.025899 97.2101496 167.605054 96.5445753 167.991157L89.8222751 171.858224C89.1286189 172.237089 88.2960262 172.266177 87.5774745 171.936651v0z" id="Path" fill="#2b303f" fill-rule="nonzero"/><path d="M97.5429368 177.685971 90.4939 173.631886C89.9190859 173.300078 89.991694 172.720923 90.6572682 172.340853L97.3795685 168.467754C98.0712871 168.085013 98.9039182 168.051448 99.6243691 168.377261L106.667355 172.431346C107.272423 172.763153 107.169561 173.342308 106.510038 173.722379L99.7816866 177.595478C99.09211 177.978111 98.2613152 178.011693 97.5429368 177.685971z" id="Path" fill="#2b303f" fill-rule="nonzero"/><path d="M107.502348 183.399094 100.44121 179.363108C99.8361427 179.0313 99.9390042 178.458178 100.604578 178.072075L107.326879 174.205008C108.017627 173.820326 108.850279 173.784522 109.571679 174.108482L116.620716 178.1686C117.225784 178.500408 117.122922 179.07353 116.457348 179.459634L109.735048 183.3267C109.044433 183.702463 108.21599 183.729325 107.502348 183.399094z" id="Path" fill="#2b303f" fill-rule="nonzero"/><path d="M117.46176 189.154447 110.418774 185.100362C109.813706 184.768555 109.916568 184.1894 110.582142 183.809329L117.304442 179.93623C117.994019 179.553597 118.824814 179.520016 119.543192 179.845737L126.592229 183.899822C127.167043 184.23163 127.094435 184.810785 126.428861 185.190855L119.70656 189.063955C119.014842 189.446695 118.182211 189.48026 117.46176 189.154447v0z" id="Path" fill="#2b303f" fill-rule="nonzero"/><path d="M127.427222 194.891702 120.408439 190.837617C119.833625 190.505809 119.906233 189.926654 120.571807 189.546584L127.294107 185.673484C127.985826 185.290744 128.818457 185.257179 129.538908 185.582991L136.581894 189.637077C137.156708 189.968884 137.090151 190.548039 136.424576 190.92811L129.702276 194.795176C129.004401 195.192969 128.156468 195.228945 127.427222 194.891702z" id="Path" fill="#2b303f" fill-rule="nonzero"/><path d="M137.386634 200.622924 130.343648 196.568838C129.768833 196.237031 129.841442 195.657876 130.500965 195.277805L137.229316 191.404706C137.918893 191.022074 138.749688 190.988492 139.468066 191.314213L146.517103 195.368298C147.091917 195.700106 147.019309 196.279261 146.353735 196.659331L139.631434 200.532431C138.939716 200.915171 138.107085 200.948736 137.386634 200.622924z" id="Path" fill="#2b303f" fill-rule="nonzero"/><path d="M147.352096 206.360178 140.303059 202.306093C139.728245 201.974285 139.800853 201.39513 140.466427 201.01506L147.188728 197.141961C147.880446 196.75922 148.713077 196.725655 149.433528 197.051468L156.476514 201.105553C157.051328 201.437361 156.97872 202.016516 156.319197 202.396586L149.596896 206.269685C148.905178 206.652426 148.072547 206.685991 147.352096 206.360178v0z" id="Path" fill="#2b303f" fill-rule="nonzero"/><path d="M157.317558 212.097433 150.274572 208.037315C149.699758 207.705507 149.772366 207.132385 150.43189 206.746282L157.160241 202.879215C157.848018 202.49175 158.680234 202.455868 159.398991 202.782689L166.448027 206.842807C167.022841 207.168582 166.950233 207.747737 166.284659 208.133841L159.562359 212.000907C158.87161 212.385589 158.038958 212.421393 157.317558 212.097433z" id="Path" fill="#2b303f" fill-rule="nonzero"/><path d="M167.27697 217.828655 160.227933 213.774569C159.653119 213.442762 159.725727 212.863607 160.391301 212.483536L167.113602 208.610437C167.80532 208.227697 168.637951 208.194132 169.358402 208.519944L176.401388 212.574029C176.976202 212.905837 176.903594 213.484992 176.244071 213.865062L169.51572 217.738162C168.826143 218.120794 167.995348 218.154376 167.27697 217.828655v0z" id="Path" fill="#2b303f" fill-rule="nonzero"/><path d="M177.236381 223.565909 170.193395 219.505791C169.618581 219.180016 169.691189 218.600861 170.350713 218.214758L177.079064 214.347691C177.767668 213.963118 178.598484 213.927296 179.317814 214.251166L186.3608 218.311284C186.935614 218.643091 186.863006 219.216213 186.197431 219.602317L179.475131 223.469383C178.786801 223.854915 177.955522 223.890757 177.236381 223.565909z" id="Path" fill="#2b303f" fill-rule="nonzero"/><path d="M187.201844 229.297131 180.152807 225.243046C179.577993 224.911238 179.650601 224.332083 180.316175 223.952012L187.038475 220.078913C187.730194 219.696173 188.562825 219.662608 189.283276 219.98842L196.326262 224.042505C196.901076 224.374313 196.828468 224.953468 196.168944 225.333539L189.440593 229.206638C188.751017 229.58927 187.920222 229.622852 187.201844 229.297131z" id="Path" fill="#2b303f" fill-rule="nonzero"/><path d="M209.492531 242.135067 190.13037 230.9803C189.555556 230.648493 189.622114 230.069338 190.287688 229.689267L197.009988 225.816168C197.701707 225.433428 198.534338 225.399862 199.254789 225.725675L218.61695 236.880442C219.191764 237.206217 219.119156 237.785372 218.453582 238.171475L211.731281 242.038542C211.042137 242.421216 210.212235 242.456998 209.492531 242.135067z" id="Path" fill="#2b303f" fill-rule="nonzero"/><path d="M77.6180629 166.217495 68.0095905 160.685358C67.404523 160.35355 67.5073845 159.774395 68.1669081 159.394325L74.8952591 155.527258C75.5830359 155.139793 76.4152528 155.103911 77.1340089 155.430732L86.7424813 160.96287C87.3172955 161.294677 87.2446874 161.873832 86.5851638 162.253903L79.8689142 166.127002C79.1761352 166.513683 78.339818 166.547306 77.6180629 166.217495z" id="Path" fill="#2b303f" fill-rule="nonzero"/><path d="M248.507286 219.674711 107.018294 138.231034C106.413227 137.90526 106.516088 137.326105 107.181663 136.940001L110.545838 135.009485C111.234442 134.624911 112.065258 134.589089 112.784588 134.912959L254.273579 216.356636C254.848394 216.688443 254.775785 217.261565 254.110211 217.647669L250.752086 219.596284C250.05843 219.975149 249.225838 220.004238 248.507286 219.674711z" id="Path" fill="#2b303f" fill-rule="nonzero"/><path d="M160.857203 228.935159C160.655167 229.374035 160.30953 229.731418 159.876994 229.94868L120.946949 252.360774C119.617941 253.097354 118.017431 253.16226 116.632817 252.535727L50.0753889 214.233067C49.7909366 214.08582 49.5617505 213.850961 49.421916 213.563419 49.179889 212.960133 49.5187268 212.290485 50.4021254 211.783724L89.338221 189.365598C90.667229 188.629018 92.2677387 188.564111 93.6523525 189.190645L160.209781 227.493304C160.767428 227.734325 161.048325 228.359902 160.857203 228.935159z" id="Path" fill="#b1b4c4" fill-rule="nonzero"/><path d="M160.857203 228.935159C160.655167 229.374035 160.30953 229.731418 159.876994 229.94868L120.946949 252.360774C119.617941 253.097354 118.017431 253.16226 116.632817 252.535727L50.0753889 214.233067C49.7909366 214.08582 49.5617505 213.850961 49.421916 213.563419 49.6281834 213.128935 49.9728275 212.774699 50.4021254 212.555931L89.338221 190.143837C90.6665273 189.406268 92.2666003 189.339142 93.6523525 189.962851L160.209781 228.271544C160.492345 228.416504 160.719682 228.649527 160.857203 228.935159v0z" id="Path" fill="#c3c6d1" fill-rule="nonzero"/><path d="M259.277488 213.497058 117.788496 132.053381C117.156777 131.587524 116.782311 130.851976 116.778034 130.068568V128.40953C116.778034 127.643357 117.243936 127.29345 117.81875 127.625258L259.307741 209.068935C259.950697 209.525823 260.337134 210.260579 260.348457 211.047714V212.706752C260.318204 213.478959 259.852302 213.828865 259.277488 213.497058z" id="Path" fill="#2b303f" fill-rule="nonzero"/><path d="M139.165532 124.011572 125.188472 115.981829C123.439827 114.97434 122.017918 112.265584 122.017918 109.948964V95.0055572C122.017918 92.6768713 123.439827 91.6090542 125.188472 92.5924112L139.165532 100.646286C140.920228 101.653774 142.336086 104.362531 142.336086 106.679151V121.622557C142.311883 123.951243 140.896025 125.01906 139.165532 124.011572z" id="Path" fill="#e9eaf2" fill-rule="nonzero"/><path d="M139.111076 89.787129 125.158219 81.7573857C123.409574 80.7498973 121.987665 76.6294505 121.987665 74.6144736V57.1674282C121.987665 54.8387423 123.409574 53.7709253 125.158219 54.7542822L139.111076 62.7840255C140.865772 63.7915139 142.28163 66.5002703 142.28163 68.8168904V86.2639358C142.28163 88.3151099 140.865772 90.7946174 139.111076 89.787129z" id="Path" fill="#e9eaf2" fill-rule="nonzero"/><path d="M132.213306 78.1316339C129.37554 76.4967275 127.064182 72.5029709 127.064182 69.2331581 127.064182 65.9633453 129.37554 64.6300822 132.213306 66.2649886 135.051073 67.899895 137.368482 71.8936515 137.368482 75.1634643 137.368482 78.4332771 135.057124 79.7665403 132.213306 78.1316339zm0-10.346363400000001C130.101621 66.5786975 128.383229 67.5620545 128.383229 69.9932991 128.523255 72.6884178 129.946588 75.1545444 132.213306 76.6294505 134.331043 77.8360235 136.049434 76.8586994 136.049434 74.4274548 135.909937 71.7290463 134.484 69.2600633 132.213306 67.7852705v0z" id="Shape" fill="#8c50ff" fill-rule="nonzero"/><path id="Path" fill="#8c50ff" fill-rule="nonzero" d="M133.629164 75.7124551 131.293604 72.008276V68.925482L132.612651 69.685623V72.0806704L134.500462 75.0669385z"/><path d="M139.092924 52.8840941 125.140067 44.8543509C123.391422 43.8408296 121.969513 39.3041151 121.969513 37.2831054V21.2236189C121.969513 19.208642 123.391422 18.3881724 125.140067 19.4137594L139.092924 27.4495355C140.965491 28.664021 142.143615 30.6972514 142.263478 32.921344V48.9868634C142.263478 50.9837416 140.84762 53.8915826 139.092924 52.8840941z" id="Path" fill="#e9eaf2" fill-rule="nonzero"/><path d="M132.116496 33.6332221C131.275452 33.1505929 130.597776 33.5427291 130.597776 34.5140203 130.654428 35.5804727 131.218817 36.5557176 132.116496 37.1383166 132.957539 37.6209458 133.641266 37.2288096 133.641266 36.2635512 133.580321 35.1952375 133.014498 34.2191562 132.116496 33.6332221v0zM136.176499 34.2365086 134.966364 33.5366962C134.77022 33.4033301 134.628533 33.2042681 134.567019 32.9756398L134.252384 31.7027053C134.186467 31.4745342 134.043187 31.2762375 133.846989 31.1416488L130.398104 29.1568363C130.228685 29.0603104 130.053215 29.1025405 129.998759 29.259395L129.684124 30.1643247C129.652392 30.2383682 129.587974 30.2935222 129.509769 30.3136067 129.431564 30.3336911 129.348439 30.3164286 129.284779 30.2668834L128.074644 29.5670711C127.517982 29.2412964 127.064182 29.5067424 127.064182 30.1703576V35.4310158C127.103099 36.1411364 127.478177 36.7905529 128.074644 37.1805467L136.194651 41.856017C136.751313 42.1757588 137.211164 41.9163456 137.211164 41.2527305V35.9739737C137.166738 35.2577749 136.782395 34.6056436 136.176499 34.21841V34.2365086zM132.116496 38.326791C130.621301 37.3515466 129.680169 35.7256498 129.581263 33.946931 129.581263 32.3301232 130.71879 31.6785738 132.116496 32.4869777 133.615342 33.4587735 134.557644 35.0866908 134.651728 36.8668377 134.651728 38.459514 133.520252 39.1170963 132.116496 38.3086924V38.326791zM135.819509 36.0162037C135.612927 35.88223 135.482623 35.658229 135.46857 35.4129172 135.46857 35.1836684 135.625887 35.0931754 135.819509 35.2077998 136.028398 35.3404238 136.161082 35.5646497 136.176499 35.8110863 136.176499 36.0222366 136.019181 36.1127296 135.819509 35.9981051V36.0162037z" id="Shape" fill="#8c50ff" fill-rule="nonzero"/><path d="M136.521387 109.406006C136.521387 112.126828 132.24356 115.662087 132.24356 115.662087 132.24356 115.662087 127.959682 107.216076 127.959682 104.477155 127.959682 101.738234 129.877746 100.652319 132.24356 102.009713 134.769966 103.65476 136.358798 106.401824 136.521387 109.406006v0z" id="Path" fill="#8c50ff" fill-rule="nonzero"/><ellipse id="Oval" fill="#e9eaf2" fill-rule="nonzero" transform="translate(132.243357, 106.756330) rotate(-30.000000) translate(-132.243357, -106.756330)" cx="132.243357" cy="106.75633" rx="2.2854767" ry="3.94840654"/><path d="M237.870199 145.995332 153.396721 97.3644073C151.968761 96.5499706 150.819133 94.3479749 150.819133 92.4596881V35.8533164C150.819133 33.9650296 151.968761 33.0962971 153.396721 33.9167667L237.870199 82.5416582C239.292107 83.3621278 240.441736 85.5580906 240.441736 87.4524102V144.052749C240.441736 145.947069 239.292107 146.815801 237.870199 145.995332z" id="Path" fill="#e9eaf2" fill-rule="nonzero"/><path d="M228.110459 104.84516 162.636102 67.1578526C161.050825 66.2408571 159.762031 63.7915139 159.762031 61.6860441V57.4208085C159.762031 55.3093058 161.050825 54.3440474 162.636102 55.25501l65.474357 37.6873073C229.695736 93.8532799 230.978479 96.3026231 230.978479 98.4141258V102.679361C230.978479 104.790864 229.695736 105.756122 228.110459 104.84516z" id="Path" fill="#fff" fill-rule="nonzero"/><path d="M192.502235 103.523962 162.636102 86.3302974C161.050825 85.4193348 159.762031 82.9699916 159.762031 80.8584889V76.6173848C159.762031 74.5058821 161.050825 73.5406237 162.636102 74.4515863L192.502235 91.6452514C194.087512 92.556214 195.370255 95.0055572 195.370255 97.1170599V101.352131C195.370255 103.463634 194.087512 104.434925 192.502235 103.523962z" id="Path" fill="#8c50ff" fill-rule="nonzero"/><path d="M255.253789 158.447165C255.253789 158.447165 223.409085 165.445288 197.663461 136.933969 171.917838 108.422649 150.915944 112.078565 150.915944 112.078565V129.875517L255.253789 189.932687V158.447165z" id="Path" fill="url(#linearGradient-2)" fill-rule="nonzero"/><path d="M255.253789 158.447165C255.253789 158.447165 223.409085 165.445288 197.663461 136.933969 171.917838 108.422649 150.915944 112.078565 150.915944 112.078565" id="Path" stroke="#cccedd" stroke-width="1.06"/></g><g id="Men_12" transform="translate(140.628088, 0.000000)" fill-rule="nonzero"><path d="M13.976423 26.7990507C13.0489844 28.4598787 11.9215626 30.0004648 10.6194296 31.3862756 10.2578145 31.8087832 7.46735148 30.7404426 8.05196253 30.4386515 8.63657358 30.1368604 10.4627298 27.5897434 11.3788213 25.8876416 12.1452308 23.8555681 12.797163 21.7820208 13.3315428 19.6767805 13.9041 17.5944218 14.3983073 14.5402958 14.8201915 13.1037701 15.0405014 12.0198751 15.8759453 11.1666524 16.9537205 10.9248382 17.9602158 10.6894412 18.611123 10.967089 18.4242885 12.1863251 18.0807542 14.3109345 16.4354056 22.6041543 13.976423 26.7990507z" id="_Контур_" fill="#ffcea9"/><path d="M15.5735563 59.3019534C14.711707 60.0081446 13.4340004 59.3623116 13.3677043 59.4287057 12.3521345 60.3711591 11.2879275 61.2596442 10.1794646 62.0905033 9.63704198 62.5130109 8.79930037 63.0803781 8.97408099 63.90125 9.24529231 65.3558831 11.5777096 64.9092323 12.4576396 64.4625814 13.3375697 64.0159306 14.0607998 63.255417 14.8684069 62.7604796 15.4710987 62.3862586 16.0737905 62.1991481 16.1400866 61.4446703 16.1943288 60.9919836 15.7302561 59.283846 15.5735563 59.3019534z" id="Path" fill="#38226d"/><path d="M16.1280327 61.1428792C16.0135213 61.8611421 15.4349372 62.0603242 14.8442992 62.4285093 14.0005307 62.9536259 13.2531928 63.7141395 12.3732628 64.1607903 11.4933327 64.6074412 9.53458437 64.9816621 8.96202716 63.9374649 9.26939998 65.3438115 11.5656558 64.9031965 12.433532 64.4625814 13.3014082 64.0219664 14.0366922 63.255417 14.8442992 62.7604796 15.446991 62.3862586 16.0496828 62.1991481 16.1159789 61.4446703 16.1281635 61.3445672 16.1321948 61.2436372 16.1280327 61.1428792v0z" id="Path" fill="#9c73ff"/><path d="M6.79836357 54.2378986C5.93651429 54.9440898 4.42375786 54.1775404 4.35746176 54.2378986 3.45969359 55.1534805 2.50772936 56.0141343 1.50672952 56.8151947.96430689 57.243738.126565279 57.8111053.301345903 58.6259413.572557216 60.0866103 2.90497451 59.6399595 3.79093146 59.1933086 4.67688842 58.7466578 5.38806475 57.9861442 6.20169869 57.4851709 6.80439049 57.1169858 7.4070823 56.9238395 7.4733784 56.1753975 7.52159374 55.7227108 6.95506344 54.2197911 6.79836357 54.2378986z" id="Path" fill="#38226d"/><path d="M7.44324381 55.9762154C7.32873236 56.6944782 6.75014823 56.8936604 6.15951026 57.2618455 5.31574173 57.786962 4.56840389 58.5474756 3.68847385 58.9941265 2.80854382 59.4407773.843768529 59.8149983.277238231 58.7708011.584611052 60.1771476 2.87483992 59.7365326 3.74874303 59.2959176 4.62264615 58.8553026 5.34587632 58.0887532 6.15951026 57.5877799 6.76220207 57.2195948 7.36489387 57.0324843 7.43118997 56.2780065 7.44337459 56.1779034 7.44740584 56.0769733 7.44324381 55.9762154z" id="Path" fill="#9c73ff"/><path d="M27.1211313 31.5311353C28.0794113 37.5307426 25.4215404 39.7700327 21.9620894 41.0435912 19.4789992 41.9610362 15.9351714 43.3734186 15.9351714 43.3734186 15.9351714 43.3734186 15.9833867 44.6892278 16.0074944 47.6407449 16.0074944 50.2421843 15.6940946 59.7123893 15.6940946 59.7123893 14.8619542 60.141018 13.8743911 60.141018 13.0422507 59.7123893 13.0422507 59.7123893 11.6500326 52.4392235 11.3547136 49.1557363 10.9509101 44.7073353 10.2698684 41.7920331 10.4988913 40.8323374 10.6977796 39.9873223 15.5554755 37.5971367 17.0983665 36.3175424L6.91890194 39.7338178C7.12148092 40.8387726 7.22035174 41.9602904 7.21422092 43.0836991 7.12381715 46.6146551 6.92492885 54.2620419 6.92492885 54.2620419c0 0-1.3922180699999993 1.0079823000000019-2.5855478499999993.0C4.339381 54.2620419 1.77794083 39.1302355 2.09134057 37.1263425 2.38665955 35.2250585 11.3547136 31.337989 12.9397931 29.9980365 13.4967341 29.5447015 14.2196514 29.3494448 14.928676 29.4608483L27.1211313 31.5311353z" id="_Контур_2" fill="#8c50ff"/><g id="_Группа_" transform="translate(0.602692, 25.350453)"><g id="_Группа_2"><path d="M2.13352899 8.67951237 8.97408099 4.72604881C9.09458317 4.65337669 9.2453285 4.65337669 9.36583067 4.72604881L21.3593976 11.6612086 14.3259842 15.7293527 2.13352899 8.67951237z" id="_Контур_3" fill="#f4f4f4"/><path d="M14.6454109 14.2747196 15.1697528 14.5765107C15.2119412 14.5765107 15.2059143 14.6429047 15.1697528 14.6730838L14.6695186 14.9628033C14.6179319 14.9868426 14.5583784 14.9868426 14.5067918 14.9628033L13.9824499 14.6610122C13.9402615 14.6610122 13.9462884 14.5946182 13.9824499 14.564439L14.4826841 14.2747196C14.5342708 14.2506803 14.5938242 14.2506803 14.6454109 14.2747196v0z" id="Path" fill="#3a2c6d"/><path d="M13.9101269 13.8823911 14.4284418 14.1781464C14.4706303 14.1781464 14.4646033 14.2505763 14.4284418 14.2747196L13.9342346 14.564439C13.8811876 14.5913296 13.8185279 14.5913296 13.7654809 14.564439L13.2471659 14.2626479C13.2049775 14.2626479 13.2110044 14.1962539 13.2471659 14.1660748L13.7413732 13.8823911C13.7935858 13.8522017 13.8579143 13.8522017 13.9101269 13.8823911v0z" id="Path" fill="#3a2c6d"/><path d="M13.162789 13.4176328 13.681104 13.7194239C13.7232924 13.7194239 13.7232924 13.785818 13.681104 13.8159971L13.1868967 14.0996807C13.1338497 14.1265713 13.07119 14.1265713 13.018143 14.0996807L12.4998281 13.7978896C12.4576396 13.7978896 12.4636666 13.7314956 12.4998281 13.7013165L12.9940353 13.411597C13.0480374 13.3865844 13.1107063 13.3888259 13.162789 13.4176328v0z" id="Path" fill="#3a2c6d"/><path d="M12.433532 12.9951253 12.9518469 13.2969164C12.9940353 13.2969164 12.9940353 13.3633104 12.9518469 13.3934895L12.4576396 13.683209C12.4039992 13.7074821 12.3425263 13.7074821 12.2888859 13.683209L11.770571 13.3814179C11.7283825 13.3814179 11.7344095 13.3150238 11.770571 13.2848447L12.2647783 12.9951253C12.3184187 12.9708521 12.3798915 12.9708521 12.433532 12.9951253v0z" id="Path" fill="#3a2c6d"/><path d="M11.692221 12.5665819 12.2165629 12.868373C12.2587513 12.868373 12.2527244 12.9408029 12.2165629 12.9649462L11.7163287 13.2546656C11.6653945 13.2814959 11.6045362 13.2814959 11.5536019 13.2546656L11.0292601 12.9528745C10.9870716 12.9528745 10.9930985 12.8864805 11.0292601 12.8563014L11.5294943 12.5726177C11.5794303 12.5438776 11.6402989 12.5416199 11.692221 12.5665819z" id="Path" fill="#3a2c6d"/><path d="M10.956937 12.1440743 11.4812789 12.4458654C11.5234673 12.4458654 11.5174404 12.5122595 11.4812789 12.5424386L10.9810447 12.8261222C10.9301105 12.8529525 10.8692522 12.8529525 10.8183179 12.8261222L10.2939761 12.5243311C10.2517876 12.5243311 10.2578145 12.4579371 10.2939761 12.4337938L10.7942102 12.1440743C10.8451445 12.1172441 10.9060028 12.1172441 10.956937 12.1440743v0z" id="Path" fill="#3a2c6d"/><path d="M10.2457607 11.715531 10.7640757 12.0173221C10.8062641 12.0173221 10.8002372 12.0837161 10.7640757 12.1138952L10.2698684 12.4036147C10.216228 12.4278878 10.1547551 12.4278878 10.1011147 12.4036147L9.58279972 12.1018236C9.54061129 12.1018236 9.54061129 12.0354295 9.58279972 12.0052504L10.077007 11.715531C10.1306474 11.6912578 10.1921203 11.6912578 10.2457607 11.715531v0z" id="Path" fill="#3a2c6d"/><path d="M9.48034211 11.2869876 10.004684 11.5887787C10.0468724 11.5887787 10.0408455 11.6612086 10.004684 11.6853518L9.50444978 11.9750713C9.45351555 12.0019015 9.39265723 12.0019015 9.341723 11.9750713L8.81738113 11.6732802C8.7751927 11.6732802 8.78121962 11.6068862 8.81738113 11.576707L9.31761532 11.2930234C9.36755142 11.2642833 9.42841999 11.2620256 9.48034211 11.2869876v0z" id="Path" fill="#3a2c6d"/><path d="M8.74505811 10.86448 9.26337306 11.1662711C9.30556149 11.1662711 9.29953457 11.2326652 9.26337306 11.2628443L8.76916578 11.5465279C8.71611878 11.5734185 8.65345908 11.5734185 8.60041208 11.5465279L8.08209712 11.2447368C8.0399087 11.2447368 8.04593561 11.1783428 8.08209712 11.1541995L8.5763044 10.86448C8.6293514 10.8375895 8.69201111 10.8375895 8.74505811 10.86448v0z" id="Path" fill="#3a2c6d"/><path d="M8.00374719 10.4359366 8.52808906 10.7377277C8.57027748 10.7377277 8.56425057 10.8041218 8.52808906 10.8343009L8.02785486 11.1240204C7.97626819 11.1480596 7.91671474 11.1480596 7.86512807 11.1240204L7.3407862 10.8222293C7.29859777 10.8222293 7.30462469 10.7558352 7.3407862 10.7256561L7.8410204 10.4359366C7.89195464 10.4091064 7.95281295 10.4091064 8.00374719 10.4359366z" id="Path" fill="#3a2c6d"/><path d="M7.26846318 10.0073933 7.78677814 10.3091844C7.82896656 10.3091844 7.82896656 10.3755784 7.78677814 10.4057575L7.29257086 10.695477C7.23952385 10.7223675 7.17686415 10.7223675 7.12381715 10.695477L6.6055022 10.3936859C6.56331377 10.3936859 6.56934069 10.3272918 6.6055022 10.2971127L7.09970948 10.0134291C7.15179225 9.98462217 7.21446112 9.98238069 7.26846318 10.0073933v0z" id="Path" fill="#3a2c6d"/><path d="M6.53317918 9.5848857 7.05149413 9.88667682C7.09368256 9.88667682 7.08765564 9.95307086 7.05149413 9.98324997L6.55125993 10.2669336C6.5003257 10.2937638 6.43946738 10.2937638 6.38853315 10.2669336L5.86419127 9.9651425C5.82200285 9.9651425 5.82802977 9.89874846 5.86419127 9.86856935L6.36442547 9.5848857C6.41747247 9.55799518 6.48013218 9.55799518 6.53317918 9.5848857z" id="Path" fill="#3a2c6d"/><path d="M5.79186826 9.15634233 6.31621013 9.45813344C6.35839856 9.45813344 6.35237164 9.52452748 6.31621013 9.55470659L5.81597593 9.83839024C5.76504169 9.86522047 5.70418338 9.86522047 5.65324914 9.83839024L5.12890727 9.53659913C5.08671884 9.53659913 5.09274576 9.46416926 5.12890727 9.44002597L5.62914147 9.1503065C5.6810636 9.12534453 5.74193216 9.12760226 5.79186826 9.15634233v0z" id="Path" fill="#3a2c6d"/><path d="M4.70099609 8.52258099 5.57489921 9.02959006C5.61708763 9.02959006 5.61106072 9.0959841 5.57489921 9.12616321L5.08069193 9.41588268C5.02705151 9.44015581 4.96557864 9.44015581 4.91193822 9.41588268L4.0380351 8.90887361C3.99584668 8.90887361 3.99584668 8.84247957 4.0380351 8.81230046L4.53224238 8.52258099C4.5858828 8.49830787 4.64735567 8.49830787 4.70099609 8.52258099v0z" id="Path" fill="#3a2c6d"/><path d="M14.2657151 13.2305223 14.7900569 13.5323134C14.8322454 13.5323134 14.8262184 13.5987075 14.7900569 13.6288866L14.2898227 13.9125702C14.239832 13.9429869 14.1770867 13.9429869 14.1270959 13.9125702L13.6027541 13.616815C13.5605656 13.616815 13.5665926 13.5443851 13.6027541 13.5202418L14.1029883 13.2305223C14.1539225 13.2036921 14.2147808 13.2036921 14.2657151 13.2305223v0z" id="Path" fill="#3a2c6d"/><path d="M13.5304311 12.801979 14.048746 13.1037701C14.0909344 13.1037701 14.0849075 13.1701641 14.048746 13.2003432L13.5545387 13.4900627C13.5008983 13.5143358 13.4394254 13.5143358 13.385785 13.4900627L12.8674701 13.1882716C12.8252816 13.1882716 12.8252816 13.1218775 12.8674701 13.0916984L13.3616773 12.801979C13.4147243 12.7750884 13.477384 12.7750884 13.5304311 12.801979v0z" id="Path" fill="#3a2c6d"/><path d="M12.7891201 12.3734356 13.3074351 12.6752267C13.3556504 12.6752267 13.3496235 12.7416207 13.3074351 12.7717998L12.8132278 13.0615193C12.7595874 13.0857924 12.6981145 13.0857924 12.6444741 13.0615193L12.1261591 12.7597282C12.0839707 12.7597282 12.0899976 12.6933342 12.1261591 12.663155L12.6203664 12.3734356C12.6740068 12.3491624 12.7354797 12.3491624 12.7891201 12.3734356z" id="Path" fill="#3a2c6d"/><path d="M12.0538361 11.9448922 12.578178 12.2466833C12.6203664 12.2466833 12.6143395 12.3191132 12.578178 12.3432565L12.0779438 12.6329759C12.0270096 12.6598062 11.9661512 12.6598062 11.915217 12.6329759L11.3908751 12.3311848C11.3486867 12.3311848 11.3547136 12.2647908 11.3908751 12.2346117L11.8911093 11.950928C11.9410454 11.9221879 12.001914 11.9199302 12.0538361 11.9448922v0z" id="Path" fill="#3a2c6d"/><path d="M11.3185521 11.5223846 11.8368671 11.8241758C11.8790555 11.8241758 11.8730286 11.8905698 11.8368671 11.9207489L11.3426598 12.2104684C11.2890194 12.2347415 11.2275465 12.2347415 11.1739061 12.2104684L10.6555911 11.9086773C10.6134027 11.9086773 10.6134027 11.8422832 10.6555911 11.8121041L11.1497984 11.5223846C11.2034388 11.4981115 11.2649117 11.4981115 11.3185521 11.5223846v0z" id="Path" fill="#3a2c6d"/><path d="M10.5772412 11.0938413 11.1015831 11.3956324C11.1437715 11.3956324 11.1377446 11.4680622 11.1015831 11.4922055L10.6013489 11.781925C10.5504146 11.8087552 10.4895563 11.8087552 10.4386221 11.781925L9.91428021 11.4801339C9.87209179 11.4801339 9.8781187 11.4137398 9.91428021 11.3835607L10.4145144 11.0998771C10.4644505 11.071137 10.5253191 11.0688793 10.5772412 11.0938413v0z" id="Path" fill="#3a2c6d"/><path d="M9.83593028 10.6713337 10.3602721 10.9731248C10.4024606 10.9731248 10.3964337 11.0395189 10.3602721 11.0636622L9.86003795 11.3533816C9.80910371 11.3802118 9.7482454 11.3802118 9.69731116 11.3533816L9.17296929 11.0515905C9.13078086 11.0515905 9.13680778 10.9851965 9.17296929 10.9550174L9.67320349 10.6713337C9.72413773 10.6445035 9.78499604 10.6445035 9.83593028 10.6713337v0z" id="Path" fill="#3a2c6d"/><path d="M9.10064627 10.2608978 9.61896123 10.5626889C9.66114965 10.5626889 9.65512274 10.6290829 9.61896123 10.6592621L9.12475395 10.9429457C9.07170695 10.9698362 9.00904724 10.9698362 8.95600024 10.9429457L8.43768529 10.6411546C8.39549686 10.6411546 8.40152378 10.5747605 8.43768529 10.5506173L8.93189257 10.2608978C8.98493957 10.2340073 9.04759927 10.2340073 9.10064627 10.2608978v0z" id="Path" fill="#3a2c6d"/><path d="M8.35933535 9.81424695 8.88367722 10.1160381C8.92586565 10.1160381 8.91983873 10.1824321 8.88367722 10.2126112L8.38344302 10.4962949C8.33250879 10.5231251 8.27165047 10.5231251 8.22071624 10.4962949L7.69637437 10.1945037C7.65418594 10.1945037 7.66021286 10.1220739 7.69637437 10.0979306L8.19660856 9.80821113C8.24853069 9.78324916 8.30939926 9.78550688 8.35933535 9.81424695v0z" id="Path" fill="#3a2c6d"/><path d="M7.62405135 9.38570357 8.1423663 9.68749468C8.18455473 9.68749468 8.17852781 9.75388873 8.1423663 9.78406784L7.6421321 10.0737873C7.59054543 10.0978266 7.53099198 10.0978266 7.47940532 10.0737873L6.95506344 9.77199619C6.91287502 9.77199619 6.91890194 9.70560215 6.95506344 9.67542304L7.45529764 9.38570357C7.50893806 9.36143044 7.57041093 9.36143044 7.62405135 9.38570357v0z" id="Path" fill="#3a2c6d"/><path d="M6.88274043 8.95716019 7.40105538 9.2589513C7.44324381 9.2589513 7.44324381 9.32534535 7.40105538 9.35552446L6.9068481 9.64524393C6.8538011 9.67213445 6.79114139 9.67213445 6.73809439 9.64524393L6.21977944 9.34345281C6.17759101 9.34345281 6.18361793 9.27705877 6.21977944 9.24687966L6.71398672 8.95716019C6.76762714 8.93288707 6.82910001 8.93288707 6.88274043 8.95716019v0z" id="Path" fill="#3a2c6d"/><path d="M6.14142951 8.53465264 6.66577138 8.83040792C6.7079598 8.83040792 6.70193289 8.90283779 6.66577138 8.92698108L6.16553718 9.21670055C6.11460294 9.24353078 6.05374463 9.24353078 6.00281039 9.21670055L5.47846852 8.91490944C5.43628009 8.91490944 5.44230701 8.84851539 5.47846852 8.81833628L5.97870272 8.53465264C6.02869348 8.504236 6.09143874 8.504236 6.14142951 8.53465264z" id="Path" fill="#3a2c6d"/><path d="M15.007026 13.6590657 15.8809291 14.1660748C15.9231175 14.1660748 15.9231175 14.2324688 15.8809291 14.2626479L15.3867218 14.5463316C15.3336748 14.5732221 15.2710151 14.5732221 15.2179681 14.5463316L14.344065 14.0393225C14.3018766 14.0393225 14.3079035 13.9729285 14.344065 13.9427494L14.8382723 13.6590657C14.8913193 13.6321752 14.953979 13.6321752 15.007026 13.6590657v0z" id="Path" fill="#3a2c6d"/><path d="M4.7371576 8.4984377 5.25547255 8.80022881C5.3049924 8.82407424 5.36265257 8.82407424 5.41217242 8.80022881L5.93651429 8.49240188C5.95541187 8.48537703 5.96795141 8.46732041 5.96795141 8.44713321 5.96795141 8.42694602 5.95541187 8.40888939 5.93651429 8.40186455H5.89432587C5.85816436 8.40186455 5.85816436 8.34754215 5.89432587 8.32339886L6.44880233 8.00350028C6.49701767 8.00350028 6.49701767 7.93710623 6.44880233 7.91296295L6.11732183 7.71981663C6.06780199 7.69597121 6.01014181 7.69597121 5.96062196 7.71981663L5.44230701 8.02160775 5.33382249 8.08196597 5.25547255 8.13025255 5.17712262 8.1725033 4.73113068 8.43204366C4.7151143 8.45223608 4.71776789 8.48146877 4.7371576 8.4984377v0z" id="Path" fill="#3a2c6d"/><path d="M17.4780624 12.6209043 18.0024043 12.9226954C18.0445927 12.9226954 18.0385658 12.9890894 18.0024043 13.0192686L17.5021701 13.3029522C17.4521793 13.3333688 17.389434 13.3333688 17.3394433 13.3029522L16.8151014 13.0071969C16.772913 12.9770178 16.7789399 12.934767 16.8151014 12.9106238L17.3153356 12.6209043C17.3662698 12.5940741 17.4271281 12.5940741 17.4780624 12.6209043z" id="Path" fill="#3a2c6d"/><path d="M16.766886 12.1923609 17.2912279 12.494152C17.3334163 12.494152 17.3273894 12.5665819 17.2912279 12.5907252L16.7909937 12.8804446C16.7400595 12.9072749 16.6792012 12.9072749 16.6282669 12.8804446L16.1039251 12.5786535C16.0617366 12.5786535 16.0677636 12.5122595 16.1039251 12.4820804L16.6041593 12.1983967C16.6540954 12.1696567 16.7149639 12.1673989 16.766886 12.1923609v0z" id="Path" fill="#3a2c6d"/><path d="M16.031602 11.7698534 16.5559439 12.0716445C16.5981323 12.0716445 16.5921054 12.1380385 16.5559439 12.1682176L16.0557097 12.4519013C16.0047755 12.4787315 15.9439172 12.4787315 15.8929829 12.4519013L15.3686411 12.1501102C15.3264526 12.1501102 15.3324796 12.0776803 15.3686411 12.053537L15.8688753 11.7638175C15.9207974 11.7388556 15.981666 11.7411133 16.031602 11.7698534z" id="Path" fill="#3a2c6d"/><path d="M9.76963418 8.14836001 10.2879491 8.45015112C10.3301376 8.45015112 10.3241106 8.51654517 10.2879491 8.54672428L9.79374185 8.83040792C9.74069485 8.85729845 9.67803515 8.85729845 9.62498815 8.83040792L9.10667319 8.52861681C9.05845785 8.52861681 9.06448477 8.46222277 9.10667319 8.43204366L9.60088047 8.14836001C9.65392747 8.12146949 9.71658718 8.12146949 9.76963418 8.14836001v0z" id="Path" fill="#3a2c6d"/><path d="M9.04037709 7.71981663 9.56471896 8.02160775C9.60690739 8.02160775 9.60088047 8.08800179 9.56471896 8.1181809L9.06448477 8.40790037C9.0128981 8.43193961 8.95334465 8.43193961 8.90175798 8.40790037L8.37741611 8.10610926C8.33522768 8.10610926 8.3412546 8.03971521 8.37741611 8.0095361L8.87765031 7.71981663C8.92923697 7.69577739 8.98879042 7.69577739 9.04037709 7.71981663z" id="Path" fill="#3a2c6d"/><path d="M8.29303925 7.29730908 8.81738113 7.59910019C8.85956955 7.59910019 8.85354263 7.66549423 8.81738113 7.69567335L8.31714693 7.97935699C8.26621269 8.00618722 8.20535438 8.00618722 8.15442014 7.97935699L7.63007827 7.67756588C7.58788984 7.67756588 7.59391676 7.61117183 7.63007827 7.58702855L8.13031247 7.29730908C8.1812467 7.27047885 8.24210502 7.27047885 8.29303925 7.29730908v0z" id="Path" fill="#3a2c6d"/><path d="M7.55775525 6.8687657 8.08209712 7.17055681C8.12428555 7.17055681 8.11825863 7.23695086 8.08209712 7.26712997L7.58186292 7.55684943C7.53027625 7.58088868 7.4707228 7.58088868 7.41913613 7.55684943L6.89479426 7.25505832C6.85260584 7.25505832 6.85863275 7.18866428 6.89479426 7.15848517L7.39502846 6.8687657C7.44661513 6.84472645 7.50616858 6.84472645 7.55775525 6.8687657z" id="Path" fill="#3a2c6d"/><path d="M15.1094836 11.2326652 15.8206599 11.6431011C15.8628483 11.6431011 15.8568214 11.715531 15.8206599 11.7396742L15.3204257 12.0293937C15.2694915 12.0562239 15.2086332 12.0562239 15.1576989 12.0293937L14.4646033 11.6249936C14.4224149 11.6249936 14.4224149 11.5585996 14.4646033 11.5284205L14.9588106 11.238701C15.0064432 11.2175826 15.0603189 11.2154244 15.1094836 11.2326652z" id="Path" fill="#3a2c6d"/><path d="M10.5049182 8.57086757 11.2160945 8.98130348C11.2582829 8.98130348 11.252256 9.04769753 11.2160945 9.07787664L10.7158603 9.3675961C10.6642736 9.39163535 10.6047202 9.39163535 10.5531335 9.3675961L9.8419572 8.95716019C9.79976877 8.95716019 9.79976877 8.89076615 9.8419572 8.86058704L10.3361645 8.57086757C10.3898049 8.54659444 10.4512778 8.54659444 10.5049182 8.57086757v0z" id="Path" fill="#3a2c6d"/><path d="M11.4511443 9.10805575 14.9166222 11.1119487C14.9588106 11.1119487 14.9527837 11.1783428 14.9166222 11.2085219L14.4224149 11.4922055C14.3693679 11.5190961 14.3067082 11.5190961 14.2536612 11.4922055L10.7881833 9.48831255C10.7459949 9.48831255 10.7520218 9.4219185 10.7881833 9.39777521L11.2884175 9.10805575C11.3393518 9.08122552 11.4002101 9.08122552 11.4511443 9.10805575v0z" id="Path" fill="#3a2c6d"/><path d="M14.78403 12.6752267 15.302345 12.9770178C15.3445334 12.9770178 15.3385065 13.0434118 15.302345 13.073591L14.8081377 13.3633104C14.7544973 13.3875835 14.6930244 13.3875835 14.639384 13.3633104L14.121069 13.0615193C14.0788806 13.0615193 14.0788806 12.9951253 14.121069 12.9649462L14.6152763 12.6752267C14.6689167 12.6509536 14.7303896 12.6509536 14.78403 12.6752267v0z" id="Path" fill="#3a2c6d"/><path d="M14.0427191 12.2708266 14.567061 12.5726177C14.6092494 12.5726177 14.6032225 12.6450476 14.567061 12.6691909L14.0668268 12.9589103C14.0158925 12.9857406 13.9550342 12.9857406 13.9041 12.9589103L13.3797581 12.6571192C13.3375697 12.6571192 13.3435966 12.5907252 13.3797581 12.5605461L13.8799923 12.2768624C13.9299284 12.2481223 13.990797 12.2458646 14.0427191 12.2708266v0z" id="Path" fill="#3a2c6d"/><path d="M13.3074351 11.848319 13.831777 12.1501102C13.8739654 12.1501102 13.8679385 12.2165042 13.831777 12.2466833L13.3315428 12.530367C13.2784958 12.5572575 13.215836 12.5572575 13.162789 12.530367L12.6444741 12.2285758C12.6022857 12.1983967 12.6083126 12.156146 12.6444741 12.1320027L13.1447083 11.8422832C13.1966304 11.8173212 13.257499 11.819579 13.3074351 11.848319z" id="Path" fill="#3a2c6d"/><path d="M12.5721511 11.4197757 13.090466 11.7215668C13.1326545 11.7215668 13.1266275 11.7879608 13.090466 11.8181399L12.5962588 12.1078594C12.5426183 12.1321325 12.4811455 12.1321325 12.427505 12.1078594L11.9091901 11.8060683C11.8670017 11.8060683 11.8730286 11.7396742 11.9091901 11.7094951L12.4033974 11.4197757C12.4570378 11.3955025 12.5185107 11.3955025 12.5721511 11.4197757v0z" id="Path" fill="#3a2c6d"/><path d="M11.8308402 10.9972681 12.355182 11.2990592C12.3973705 11.2990592 12.3913435 11.3654533 12.355182 11.3956324L11.8549478 11.679316C11.8040136 11.7061462 11.7431553 11.7061462 11.692221 11.679316L11.1678792 11.3775249C11.1256907 11.3775249 11.1317177 11.3111309 11.1678792 11.2809518L11.6681134 10.9972681C11.7190476 10.9704379 11.7799059 10.9704379 11.8308402 10.9972681v0z" id="Path" fill="#3a2c6d"/><path d="M11.0955562 10.5687247 11.619898 10.8705158C11.6620865 10.8705158 11.6560595 10.9369099 11.619898 10.967089L11.1196638 11.2568085C11.0680772 11.2808477 11.0085237 11.2808477 10.956937 11.2568085L10.4325952 10.9550174C10.3904067 10.9550174 10.3964337 10.8886233 10.4325952 10.8584442L10.9328294 10.5687247C10.984416 10.5446855 11.0439695 10.5446855 11.0955562 10.5687247z" id="Path" fill="#3a2c6d"/><path d="M10.3602721 10.1401813 10.8785871 10.4419725C10.9207755 10.4419725 10.9207755 10.5144023 10.8785871 10.5385456L10.3843798 10.8282651C10.3313328 10.8551556 10.2686731 10.8551556 10.2156261 10.8282651L9.69731116 10.526474C9.65512274 10.526474 9.66114965 10.4600799 9.69731116 10.4299008L10.1915184 10.1462172C10.2436012 10.1174103 10.3062701 10.1151688 10.3602721 10.1401813v0z" id="Path" fill="#3a2c6d"/><path d="M9.6430689 9.71767379 10.1613839 10.0194649C10.2035723 10.0194649 10.1975454 10.0858589 10.1613839 10.1160381L9.66717657 10.3997217C9.61496399 10.4299112 9.55063544 10.4299112 9.49842287 10.3997217L8.98010791 10.1039664C8.93791949 10.1039664 8.93791949 10.0315365 8.98010791 10.0073933L9.47431519 9.71767379C9.5273622 9.69078327 9.5900219 9.69078327 9.6430689 9.71767379z" id="Path" fill="#3a2c6d"/><path d="M8.88367722 9.28913041 9.4080191 9.59092153C9.45020752 9.59092153 9.4441806 9.65731557 9.4080191 9.68749468L8.9077849 9.97721415C8.85619823 10.0012534 8.79664478 10.0012534 8.74505811 9.97721415L8.22071624 9.67542304C8.17852781 9.67542304 8.18455473 9.60902899 8.22071624 9.57884988L8.72095044 9.28913041C8.77253711 9.26509117 8.83209055 9.26509117 8.88367722 9.28913041v0z" id="Path" fill="#3a2c6d"/><path d="M8.14839322 8.86662286 8.66670817 9.16841397C8.71492352 9.16841397 8.7088966 9.23480801 8.66670817 9.2589513L8.16647397 9.54867077C8.11342697 9.5755613 8.05076727 9.5755613 7.99772027 9.54867077L7.47940532 9.24687966C7.43721689 9.24687966 7.44324381 9.18048561 7.47940532 9.1503065L7.9736126 8.86662286C8.02828123 8.83764944 8.09372459 8.83764944 8.14839322 8.86662286v0z" id="Path" fill="#3a2c6d"/><path d="M7.41310922 8.45015112 7.93142417 8.75194224C7.9736126 8.75194224 7.96758568 8.81833628 7.93142417 8.84851539L7.43721689 9.13823486C7.38357647 9.16250798 7.3221036 9.16250798 7.26846318 9.13823486L6.75014823 8.83644375C6.7079598 8.83644375 6.71398672 8.7700497 6.75014823 8.73987059L7.23230167 8.45015112C7.28855769 8.41900081 7.3568532 8.41900081 7.41310922 8.45015112z" id="Path" fill="#3a2c6d"/><path d="M6.6717983 8.0095361 7.19614017 8.31132721C7.23832859 8.31132721 7.23230167 8.38375708 7.19614017 8.40790037L6.69590597 8.69761984C6.64497173 8.72445007 6.58411342 8.72445007 6.53317918 8.69761984L6.00883731 8.39582872C5.96664888 8.39582872 5.9726758 8.32943468 6.00883731 8.29925557L6.50907151 8.01557192C6.5590076 7.98683185 6.61987617 7.98457413 6.6717983 8.0095361z" id="Path" fill="#3a2c6d"/><path d="M15.519314 13.1279134l1.0788183.6035822C16.6403208 13.7314956 16.6342939 13.7978896 16.5981323 13.8280687L16.0978981 14.1177882C16.0463115 14.1418274 15.986758 14.1418274 15.9351714 14.1177882L14.856353 13.514206C14.8141646 13.514206 14.8201915 13.4478119 14.856353 13.4176328L15.3505603 13.1339492C15.4026431 13.1051423 15.4653119 13.1029008 15.519314 13.1279134z" id="Path" fill="#3a2c6d"/><path d="M15.8628483 12.5001878 16.3811633 12.801979C16.4293786 12.801979 16.4233517 12.868373 16.3811633 12.8925163L15.886956 13.1822358C15.833909 13.2091263 15.7712493 13.2091263 15.7182023 13.1822358L15.1998874 12.8804446C15.1576989 12.8804446 15.1637258 12.8140506 15.1998874 12.7838715L15.6940946 12.5001878C15.7471416 12.4732973 15.8098013 12.4732973 15.8628483 12.5001878v0z" id="Path" fill="#3a2c6d"/><path d="M15.1275643 12.0716445 15.6458793 12.3734356C15.6880677 12.3734356 15.6820408 12.4398296 15.6458793 12.4700087L15.151672 12.7597282C15.0980316 12.7840013 15.0365587 12.7840013 14.9829183 12.7597282L14.4646033 12.4579371C14.4224149 12.4579371 14.4284418 12.391543 14.4646033 12.3613639L14.9588106 12.0716445C15.0118576 12.0447539 15.0745173 12.0447539 15.1275643 12.0716445v0z" id="Path" fill="#3a2c6d"/><path d="M14.3862534 11.6431011 14.9105953 11.9448922C14.9527837 11.9448922 14.9467568 12.0173221 14.9105953 12.0414654L14.4103611 12.3311848C14.3594268 12.3580151 14.2985685 12.3580151 14.2476343 12.3311848L13.7232924 12.0293937C13.681104 12.0293937 13.6871309 11.9629997 13.7232924 11.9328206L14.2235266 11.6491369C14.2734627 11.6203968 14.3343313 11.6181391 14.3862534 11.6431011v0z" id="Path" fill="#3a2c6d"/><path d="M13.6509694 11.2205935 14.1753113 11.5223846C14.2174997 11.5223846 14.2114728 11.5887787 14.1753113 11.6189578L13.6750771 11.9026414C13.6250863 11.9330581 13.5623411 11.9330581 13.5123503 11.9026414L12.9880084 11.6068862C12.94582 11.576707 12.9518469 11.5344563 12.9880084 11.510313L13.4882426 11.2205935C13.5391769 11.1937633 13.6000352 11.1937633 13.6509694 11.2205935v0z" id="Path" fill="#3a2c6d"/><path d="M12.9156854 10.7920501 13.4340004 11.0938413C13.4761888 11.0938413 13.4761888 11.1602353 13.4340004 11.1904144L12.9397931 11.4801339C12.8861527 11.504407 12.8246798 11.504407 12.7710394 11.4801339L12.2527244 11.1783428C12.210536 11.1783428 12.2165629 11.1119487 12.2527244 11.0817696L12.7469317 10.7920501C12.8005721 10.767777 12.862045 10.767777 12.9156854 10.7920501v0z" id="Path" fill="#3a2c6d"/><path d="M12.1804014 10.3695426 12.6987164 10.6713337C12.7409048 10.6713337 12.7348779 10.7377277 12.6987164 10.761871L12.2045091 11.0515905C12.1514621 11.078481 12.0888024 11.078481 12.0357554 11.0515905L11.5174404 10.7497994C11.475252 10.7497994 11.475252 10.6834053 11.5174404 10.6532262L12.0116477 10.3695426C12.0646947 10.3426521 12.1273544 10.3426521 12.1804014 10.3695426z" id="Path" fill="#3a2c6d"/><path d="M11.4511443 9.94099922 11.9754862 10.2427903C12.0176746 10.2427903 12.0116477 10.3091844 11.9754862 10.3393635L11.475252 10.6290829C11.4236653 10.6531222 11.3641119 10.6531222 11.3125252 10.6290829L10.7881833 10.3272918C10.7459949 10.3272918 10.7520218 10.2608978 10.7881833 10.2307187L11.2884175 9.94099922C11.3400042 9.91695997 11.3995576 9.91695997 11.4511443 9.94099922z" id="Path" fill="#3a2c6d"/><path d="M10.7038065 9.51245584 11.2281484 9.81424695C11.2703368 9.81424695 11.2643099 9.88667682 11.2281484 9.9108201L10.7279142 10.2005396C10.6769799 10.2273698 10.6161216 10.2273698 10.5651874 10.2005396L10.0408455 9.89874846C9.99865707 9.89874846 10.004684 9.83235442 10.0408455 9.8021753L10.5410797 9.51849166C10.5910158 9.48975159 10.6518844 9.48749387 10.7038065 9.51245584z" id="Path" fill="#3a2c6d"/><path d="M9.96852248 9.08994828 10.4868374 9.39173939C10.5290259 9.39173939 10.5229989 9.45813344 10.4868374 9.48831255L9.99263015 9.77199619C9.93958315 9.79888672 9.87692344 9.79888672 9.82387644 9.77199619L9.30556149 9.47020508C9.26337306 9.47020508 9.26939998 9.39777521 9.30556149 9.37363193L9.79976877 9.08391246C9.85377083 9.05889989 9.9164397 9.06114137 9.96852248 9.08994828v0z" id="Path" fill="#3a2c6d"/><path d="M9.23323847 8.6614049 9.75155342 8.96319601C9.79374185 8.96319601 9.78771493 9.02959006 9.75155342 9.05976917L9.25734614 9.34948864C9.20370573 9.37376176 9.14223285 9.37376176 9.08859244 9.34948864L8.57027748 9.04769753C8.52206214 9.04769753 8.52808906 8.98130348 8.57027748 8.95112437L9.06448477 8.6614049C9.11812518 8.63713178 9.17959806 8.63713178 9.23323847 8.6614049v0z" id="Path" fill="#3a2c6d"/><path d="M8.49192755 8.23889735 9.01626942 8.54068846C9.05845785 8.54068846 9.05243093 8.6070825 9.01626942 8.63726161L8.51603522 8.92094526C8.46510098 8.94777549 8.40424267 8.94777549 8.35330843 8.92094526L7.82896656 8.61915415C7.78677814 8.61915415 7.79280505 8.5527601 7.82896656 8.52861681L8.32920076 8.23889735C8.380135 8.21206711 8.44099331 8.21206711 8.49192755 8.23889735v0z" id="Path" fill="#3a2c6d"/><path d="M6.84657892 7.28523743 8.28098542 8.11214508C8.32317384 8.11214508 8.31714693 8.17853912 8.28098542 8.20871823L7.78075122 8.4984377C7.7271108 8.52271083 7.66563793 8.52271083 7.61199751 8.4984377L6.18361793 7.66549423C6.14142951 7.66549423 6.14142951 7.59910019 6.18361793 7.5749569L6.67782521 7.28523743C6.73087221 7.25834691 6.79353192 7.25834691 6.84657892 7.28523743v0z" id="Path" fill="#3a2c6d"/><path d="M16.5981323 12.9226954 17.3093087 13.3331313C17.3514971 13.3331313 17.3454702 13.4055612 17.3093087 13.4297045L16.8151014 13.7194239C16.7620544 13.7463145 16.6993947 13.7463145 16.6463477 13.7194239L15.9351714 13.308988C15.8929829 13.308988 15.8990098 13.242594 15.9351714 13.2124149L16.4354056 12.9226954C16.4869922 12.8986562 16.5465457 12.8986562 16.5981323 12.9226954v0z" id="Path" fill="#3a2c6d"/><path d="M3.95968517 8.95112437 14.4224149 14.9869466C14.4646033 14.9869466 14.4646033 15.0533406 14.4224149 15.0835198L14.1753113 15.2223437C14.124377 15.2491739 14.0635187 15.2491739 14.0125845 15.2223437L3.54382782 9.18652144C3.50163939 9.18652144 3.50766631 9.12012739 3.54382782 9.08994828L3.79093146 8.94508855C3.84543445 8.92271687 3.90691463 8.92491583 3.95968517 8.95112437v0z" id="Path" fill="#3a2c6d"/><path id="_Контур_4" fill="#bfbfbf" d="M16.2063827 9.22273637 16.1340597 9.2589513 14.3259842 10.3091844 11.1136369 8.45015112 11.0473408 8.40790037 12.9217123 7.32748819z"/><path id="_Контур_5" fill="#e5e5e5" d="M16.1340597 9.2589513 14.3259842 10.3091844 11.1136369 8.45015112 12.9217123 7.40595388z"/><path d="M21.3594197 11.6612086V11.8241758C21.3613229 12.0598994 21.2371698 12.2786396 21.033944 12.3975789L14.6574647 16.0794304C14.4548978 16.199502 14.2030976 16.199502 14.0005307 16.0794304L2.46500949 9.44002597C2.25078947 9.31646204 2.1230118 9.08379576 2.13352899 8.83644375V8.67347655L14.3259842 15.7233169 21.3594197 11.6612086z" id="_Контур_6" fill="#e5e5e5"/><path d="M14.1451767 15.8259259C13.9244741 15.9129935 13.676267 15.8952382 13.4701619 15.7776393L2.01901755 9.13823486C1.81647113 9.02158734 1.67704639 8.81989851 1.63932171 8.58897504L.379695838 1.08041218C.376719128 1.03821401.376719128.995858083.379695838.953659913.378988157.744171919.463921247.543520934.614745642.398364267L12.5480434 7.29730908C12.6934515 7.38672769 12.7941977 7.53368338 12.8252816 7.70170917l1.3198951 8.12421673z" id="_Контур_7" fill="#f4f4f4"/><path d="M14.3259842 15.7293527 14.2476343 15.7776478 14.1451767 15.8259259 12.7830932 7.70170917C12.7520092 7.53368338 12.6512631 7.38672769 12.505855 7.29730908L.602691806.398364267C.646707643.348429519.699908499.307445323.759391676.277647823L12.7167971 7.18866428C12.8644973 7.27682603 12.9675649 7.42396929 13.0000623 7.59306437L14.3259842 15.7293527z" id="_Контур_8" fill="#e5e5e5"/></g></g><path d="M23.6014111 8.95112437C23.6014111 8.95112437 23.4507382 11.8060683 23.5170343 12.0595728 23.5833304 12.3130774 24.8248755 13.1520566 25.1864906 13.4538478 25.5481057 13.7556389 23.2156884 16.061323 22.0826278 16.5804037 20.9495672 17.0994844 17.3454702 15.7293527 17.2610933 13.954821 17.1767165 12.1802893 17.8637851 10.7015128 18.4303154 10.6230471 18.9968457 10.5445814 23.6014111 8.95112437 23.6014111 8.95112437z" id="_Контур_9" fill="#ffcea9"/><path d="M23.9148109 12.5545102C23.9148109 12.5545102 21.847578 15.6448512 18.9606842 15.9345707 18.0506196 15.0352332 17.9662427 11.8362474 19.2258686 10.8161934 19.2258686 10.8161934 18.0687004 9.87460517 17.2731472 10.0617157 16.4114722 10.5716475 15.7677404 11.381799 15.4650717 12.3372206 14.72581 14.4700556 14.3806603 16.7199111 14.4465226 18.9766251 14.4947379 21.9945362 14.4465226 29.6660663 14.4465226 29.6660663 14.7891586 31.4967613 15.8966981 33.0935352 17.4901162 34.054109 19.5767383 35.2395127 22.0370797 35.5807119 24.3668297 35.0077689 25.8313708 34.6637271 26.3737934 33.8488911 26.8800546 32.7805505 26.7474624 30.6619769 25.9097208 26.2860058 26.2773628 23.6121366 26.6450048 20.9382673 27.1934543 18.946446 27.3381003 16.7916574 27.4827464 14.6368689 27.0548352 14.6730838 25.9699899 13.9004986 25.3183429 13.4026394 24.6314794 12.9527952 23.9148109 12.5545102z" id="_Контур_10" fill="#f4f4f4"/><path d="M20.6000059 37.1746291C21.1189339 36.8286326 21.6605772 36.5180888 22.2212469 36.2451125 22.7439661 36.0781335 23.2192431 35.788407 23.6074381 35.4000974 24.1136992 34.90516 24.9454139 33.0219834 25.5420787 31.1750218 26.1358957 29.1037784 26.370331 26.9458295 26.2351743 24.7951577 25.9880707 22.2178616 25.0599253 18.6144758 24.8248755 17.1356993 24.5898257 15.6569229 25.0659522 15.0593765 25.7590478 14.5161525 26.5666548 13.8763553 27.6816347 14.160039 28.2782995 16.2363618 29.0466615 19.1090046 29.4914065 22.0587814 29.6042215 25.0305548 29.6287973 27.2381622 29.288712 29.4346471 28.5977262 31.5311353 27.9833156 33.3270682 27.1535727 35.0417014 26.1266898 36.6374409 25.8434247 37.1142709 25.746994 37.5428143 25.3130559 38.5206175 24.8963694 39.5031474 24.2468002 40.3691381 23.4206036 41.0435912 22.6973734 41.5626719 22.3538391 41.6471734 22.1790585 41.5385286 22.0042778 41.4298838 22.0103048 41.1824151 22.3176776 40.9349464 22.8307735 40.5309736 23.2675733 40.0383368 23.6074381 39.4803132 23.6074381 39.4803132 22.9746117 40.1201104 22.5587543 40.4701881 22.1927947 40.7799016 21.7874733 41.0396905 21.3533707 41.2427733 20.9314864 41.4298838 20.3408485 41.0677345 20.6421944 40.7840508 20.9435403 40.5003672 21.2448862 40.3555074 21.847578 39.8303909 22.1718867 39.5549104 22.4613203 39.2407252 22.7094273 38.8948385 22.2853602 39.2218731 21.8359357 39.5145314 21.3654245 39.7700327 21.0020187 39.9902023 20.5847595 40.1051181 20.1600409 40.1020029 19.937045 40.1020029 19.6658336 39.7760685 20.0877179 39.4984207 20.6676518 39.1838435 21.2078921 38.8008612 21.696905 38.3576503 22.1609777 37.8989278 22.4201352 37.5065993 22.2995968 37.5005635 22.1790585 37.4945277 21.9138741 37.7782113 21.3714514 37.9532502 20.8290288 38.128289 20.2444178 37.9532502 20.1660678 37.6695665 20.0877179 37.3858829 20.0937448 37.4220978 20.6000059 37.1746291z" id="_Контур_11" fill="#ffcea9"/><path d="M17.140555 4.68983387v0C17.4840893 2.47468711 19.0812226.796728535 21.3593976.923480801 23.2437402 1.01946414 24.8558158 2.31116304 25.3627735 4.13124358 25.8697312 5.95132412 25.1580406 7.89218919 23.5953842 8.95112437 23.5145961 9.28767332 23.3952766 9.61375504 23.239796 9.92289175 22.4382159 10.86448 19.9973141 11.4680622 19.2861378 11.3473458 18.4347203 11.2699068 17.7174056 10.6784451 17.4780624 9.8564977 16.7186707 8.1181809 16.9537205 5.78835352 17.140555 4.68983387z" id="_Контур_12" fill="#ffcea9"/><path d="M23.6014111 8.95112437v0L23.390469 7.01362543C23.390469 7.01362543 24.9695215 2.92133796 21.2388593 3.70599485 18.7798767 4.22507556 18.1591041 4.45443681 17.4117663 2.80062152 16.6644284 1.14680622 19.2861378-.344041867 22.4382159.0724298668 24.6780855.304373949 26.3659916 2.21788561 26.3195512 4.47254427 26.2412012 5.69178036 25.9157477 8.15439583 23.6014111 8.95112437z" id="Path" fill="#3a2c6d"/><path d="M29.9839174 20.0570373C29.9839174 20.0570373 27.9468191 22.0850735 25.5420787 21.4995988 25.1985444 21.2642017 24.3668297 16.5260813 24.3668297 16.5260813c0 0 0-2.6255827000000007 2.0129906999999996-2.5591887000000018C28.392811 14.0332867 29.9839174 20.0570373 29.9839174 20.0570373z" id="Path" fill="#ededed"/><path d="M14.6152763 16.1216812C14.0455909 16.1011467 13.5058179 15.8611334 13.1085468 15.4517049 13.1929236 14.3894002 14.5489802 10.3574709 17.2731472 10.0617157 16.5321031 10.5822327 15.9449548 11.2932731 15.5735563 12.119931 15.1496233 13.4265564 14.8292041 14.7646181 14.6152763 16.1216812v0z" id="Path" fill="#ededed"/></g><path d="M277.195834 188.181443 226.727524 159.012239C223.555127 157.197482 220.986996 152.26739 220.986996 148.039005V68.5465733C220.986996 64.3121389 223.555127 62.3763975 226.727524 64.2032535L277.195834 93.3785063C280.362189 95.1932639 282.93032 100.123355 282.93032 104.351741V183.856271C282.93032 188.090705 280.362189 190.014348 277.195834 188.181443z" id="Path" fill="#211b49" fill-rule="nonzero"/><path id="Path" fill="#211b49" fill-rule="nonzero" d="M279.582032 188.874806 281.256176 187.968362 280.126422 185.53189z"/><path d="M220.986996 64.5286685C221.578659 64.1299069 222.200058 63.7908553 222.844029 63.5154216L224.335283 66.8583386 220.986996 64.5286685z" id="Path" fill="#211b49" fill-rule="nonzero"/><path d="M275.52169 188.185279 225.047338 158.997632C221.880983 157.182856 219.312852 152.252714 219.312852 148.024286V68.5491946C219.312852 64.3147172 221.880983 62.3729069 225.047338 64.2058306L275.52169 93.3813798C278.688045 95.1961559 281.256176 100.120248 281.256176 104.348676v79.493239C281.256176 188.070343 278.688045 190.018203 275.52169 188.185279z" id="Path" fill="#2e245b" fill-rule="nonzero"/><path id="Path" fill="#a298e2" fill-rule="nonzero" d="M234.380147 80.2300063 226.009427 75.086606V71.872714L234.380147 77.0161142z"/><path id="Path" fill="#c33afc" fill-rule="nonzero" d="M274.559601 103.630425 236.054291 81.7673257V78.5585478L274.559601 100.415781z"/><path id="Path" fill="#a298e2" fill-rule="nonzero" d="M234.380147 91.9302155 226.009427 86.7868153V83.5729232L234.380147 88.7163235z"/><path id="Path" fill="#f4ce2c" fill-rule="nonzero" d="M261.166449 106.973342 236.054291 91.9302155V88.5872986L261.166449 103.630425z"/><path id="Path" fill="#a298e2" fill-rule="nonzero" d="M234.380147 96.9445909 226.009427 91.8034476V88.5872986L234.380147 93.7284419z"/><path id="Path" fill="#ff8657" fill-rule="nonzero" d="M267.863025 117.002092 236.054291 98.5652171V95.2731325L267.863025 113.710008z"/><path id="Path" fill="#a298e2" fill-rule="nonzero" d="M234.380147 101.958966 226.009427 96.8155661V93.601674L234.380147 98.7450742z"/><path id="Path" fill="#a298e2" fill-rule="nonzero" d="M257.818162 117.002092 236.054291 103.698902V100.287508L257.818162 113.590699z"/><path id="Path" fill="#a298e2" fill-rule="nonzero" d="M234.380147 86.9158401 226.009427 81.7724399V78.5585478L234.380147 83.7019481z"/><path id="Path" fill="#4d3bff" fill-rule="nonzero" d="M256.144018 98.6160494 236.054291 86.9906816V83.5729232L256.144018 95.1920542z"/><path id="Path" fill="#a298e2" fill-rule="nonzero" d="M234.380147 106.973342 226.009427 101.829941V98.6160494L234.380147 103.75945z"/><path id="Path" fill="#c33afc" fill-rule="nonzero" d="M247.773298 115.330634 236.054291 108.6448v-3.342917L247.773298 111.987717z"/><path id="Path" fill="#a298e2" fill-rule="nonzero" d="M234.380147 118.673551 226.009427 113.532408V110.316259L234.380147 115.463271z"/><path id="Path" fill="#f4ce2c" fill-rule="nonzero" d="M272.885457 138.731053 236.054291 118.536491V115.330634L272.885457 135.525195z"/><path id="Path" fill="#a298e2" fill-rule="nonzero" d="M234.380147 123.687926 226.009427 118.544526V115.330634L234.380147 120.474034z"/><path id="Path" fill="#ff8657" fill-rule="nonzero" d="M246.099154 130.37376 236.054291 123.803635V120.345009L246.099154 126.915135z"/><path id="Path" fill="#a298e2" fill-rule="nonzero" d="M234.380147 128.702302 226.009427 123.558901V120.345009L234.380147 125.48841z"/><path id="Path" fill="#a298e2" fill-rule="nonzero" d="M267.863025 148.759803 236.054291 130.317829V127.030843L267.863025 145.466808z"/><path id="Path" fill="#a298e2" fill-rule="nonzero" d="M234.380147 111.987717 226.009427 106.844317V103.630425L234.380147 108.773825z"/><path id="Path" fill="#4d3bff" fill-rule="nonzero" d="M266.188881 130.37376 236.054291 113.499436V110.316259L266.188881 127.190583z"/><path id="Path" fill="#a298e2" fill-rule="nonzero" d="M234.380147 133.716677 226.009427 128.573277V125.359385L234.380147 130.502785z"/><path id="Path" fill="#c33afc" fill-rule="nonzero" d="M239.402579 137.059594 236.054291 134.993585V132.045219L239.402579 134.111227z"/><path id="Path" fill="#a298e2" fill-rule="nonzero" d="M234.380147 143.745428 226.009427 138.604285V135.388136L234.380147 140.535148z"/><path id="Path" fill="#f4ce2c" fill-rule="nonzero" d="M242.750866 150.431262 236.054291 145.708728V142.073969L242.750866 146.796503z"/><path id="Path" fill="#a298e2" fill-rule="nonzero" d="M234.380147 148.759803 226.009427 143.616403V140.402511L234.380147 145.545911z"/><path id="Path" fill="#ff8657" fill-rule="nonzero" d="M256.144018 162.131471 236.054291 150.507521V147.088345L256.144018 158.712295z"/><path id="Path" fill="#a298e2" fill-rule="nonzero" d="M234.380147 155.445637 226.009427 150.302237V147.088345L234.380147 152.231745z"/><path id="Path" fill="#a298e2" fill-rule="nonzero" d="M266.188881 173.83168 236.054291 155.497096V152.10272L266.188881 170.437305z"/><path id="Path" fill="#a298e2" fill-rule="nonzero" d="M234.380147 138.731053 226.009427 133.587652V130.37376L234.380147 135.51716z"/><path id="Path" fill="#4d3bff" fill-rule="nonzero" d="M274.559601 162.131471 236.054291 140.273486V137.059594L274.559601 158.911714z"/><path d="M21.9206723 127.650045 16.3797485 124.86736 4.76932588 131.40786C2.13860218 132.894337.0 131.693263.0 128.714363V116.334981C.182049364 113.049666 1.95353589 110.046094 4.76932588 108.248545L73.9154377 69.1660869C76.5461614 67.6796097 78.6847636 68.8866291 78.6847636 71.8595835V84.2805869C78.5027142 87.5659021 76.7312277 90.5694738 73.9154377 92.3670229L27.4251427 118.612264" id="Path" fill="#b1b4c4" fill-rule="nonzero"/><path id="Path" fill="#b1b4c4" fill-rule="nonzero" d="M76.3700309 68.529797 78.6847636 69.5912342 76.7253154 71.872714 75.3364758 69.3533258z"/><path id="Path" fill="#b1b4c4" fill-rule="nonzero" d="M21.7638708 127.407811 25.1047835 128.702302 25.1121586 125.928392 22.1547502 125.359385z"/><path d="M4.44118471 132.022131C4.53353236 132.221321 1.77396712 131.070447 1.67618725 130.915521 1.57840738 130.760596 5.02243172 128.702302 5.02243172 128.702302L4.44118471 132.022131z" id="Path" fill="#b1b4c4" fill-rule="nonzero"/><path d="M29.1151136 118.602749 75.5910542 92.3385553C78.4037801 90.5388962 80.1740179 87.5363874 80.3589075 84.251776V71.8540299C80.3589075 68.8809493 78.2209656 67.6917171 75.5910542 69.1544727L6.4419972 108.23859C3.62854064 110.037573 1.85806944 113.040477 1.67414391 116.32537V128.723116C1.67414391 131.696196 3.81208577 132.885428 6.4419972 131.416727L18.048835 124.875949 23.6123428 127.664699 29.1151136 118.602749z" id="Path" fill="#e9eaf2" fill-rule="nonzero"/><path id="Path" fill="#8c50ff" fill-rule="nonzero" d="M73.6623319 81.2049048 8.37071953 118.673551V114.361683L73.6623319 76.8870893z"/><path id="Path" fill="#8c50ff" fill-rule="nonzero" d="M51.8984611 101.197145 8.37071953 125.359385V121.106831L51.8984611 96.9445909z"/></g></g></g></g></svg>