
<svg width="560" height="454" viewBox="0 0 560 454" xmlns="http://www.w3.org/2000/svg" xmlns:xlink="http://www.w3.org/1999/xlink"><title>1</title><desc>Created with Sketch.</desc><g id="Agency-2" stroke="none" stroke-width="1" fill="none" fill-rule="evenodd"><g id="Agency-1" transform="translate(-172.000000, -1602.000000)"><g id="1" transform="translate(172.000000, 1602.000000)"><path id="Rectangle-Copy-16" fill="#fff" d="M0 0h560v454H0z"/><g id="undraw_site_content_ihgn" transform="translate(94.000000, 62.000000)" fill-rule="nonzero"><path id="Path" fill="#efefef" d="M83.3080569 86.8756757H10.6350711V39.0054054H77.4355355z"/><ellipse id="Oval" fill="#3f3d56" cx="56.7203791" cy="53.1891892" rx="7.09004739" ry="7.09189189"/><path d="M74.4454976 24.0091921C75.2954724 23.0850777 76.1758032 22.1654857 77.062278 21.2756757L77.9905213 22.1245217C77.1150952 23.0025837 76.2463404 23.9099829 75.4078625 24.8216216L74.4454976 24.0091921z" id="Path" fill="#3f3d56"/><path d="M81.535545 17.8934295C82.997574 16.6008097 84.5309619 15.3541362 86.0934055 14.188186L86.6671801 14.9508566C85.125835 16.1014718 83.6128966 17.3313054 82.1707075 18.606517L81.535545 17.8934295zM90.9438409 10.8721687C92.5986043 9.83883705 94.3178158 8.86190753 96.0532406 7.96830747L96.4926439 8.81534994C94.7803315 9.69670707 93.0844448 10.6603786 91.4520936 11.6797391L90.9438409 10.8721687zM101.386511 5.49649132C103.186809 4.75056269 105.043307 4.06919549 106.904792 3.4706718L107.19872 4.37803927C105.361842 4.96823902 103.530077 5.64080417 101.753938 6.37662573L101.386511 5.49649132zM112.790278 2.82697393 112.571166 1.89925123C114.475305 1.45297243 116.417939 1.08018251 118.344777.791047335L118.487207 1.73383854C116.585885 2.01897243 114.669208 2.3867382 112.790278 2.82697393zM124.25465 1.10939858 124.190662.158291276C126.139247.0282631365 128.117116-.0220566835 130.069352.0088131936L130.054271.962142561C128.128153.931456876 126.176917.981130063 124.25465 1.1093829V1.10939858zM135.846376 1.29443365 135.940938.345991258C137.884925.538437136 139.845531.814835599 141.768112 1.16746232L141.594923 2.10502559C139.698164 1.75699193 137.764108 1.48429299 135.846376 1.29441797V1.29443365zM171.704337 126.897329C173.232446 125.731143 174.731634 124.485642 176.160438 123.195146L176.80301 123.901504C175.354677 125.209573 173.835088 126.472146 172.286226 127.654054L171.704337 126.897329zM147.255933 3.38631556 147.506118 2.46630544C149.390377 2.97532334 151.277775 3.56937546 153.116203 4.23191584L152.79078 5.12814554C150.976928 4.47462667 149.114747 3.88846347 147.255933 3.38631556zM180.294994 119.138871C181.610478 117.737048 182.88413 116.262901 184.080319 114.757355L184.830572 115.349224C183.617981 116.875133 182.327065 118.369166 180.993806 119.789764L180.294994 119.138871zM158.162968 7.31735163 158.561188 6.45034583C160.337528 7.26052628 162.101517 8.1537462 163.80483 9.10574311L163.336922 9.93696069C161.656281 8.99783766 159.915628 8.11635904 158.162968 7.31735163zM187.492782 110.08124C188.56168 108.482928 189.576825 106.821112 190.510163 105.141786L191.347154 105.603674C190.401115 107.305526 189.372306 108.989884 188.28922 110.609673L187.492782 110.08124zM168.277911 12.969494 168.812501 12.1791985C170.43168 13.2665142 172.025798 14.4344004 173.550407 15.6503608L172.952596 16.3945142C171.448146 15.1947392 169.875479 14.0424545 168.277911 12.969494zM193.111646 99.9730114C193.904245 98.2224381 194.633663 96.4175438 195.27932 94.6088794L196.180943 94.9282378C195.526299 96.7615997 194.787257 98.590635 193.983947 100.364902L193.111646 99.9730114zM177.328641 20.1889186 177.985755 19.4962373C179.405697 20.8336001 180.785912 22.2452357 182.088216 23.6922166L181.375833 24.3285076C180.091163 22.9010236 178.729435 21.508403 177.328641 20.1889186zM196.997469 89.0854366C197.492211 87.22666 197.9145 85.3270555 198.25254 83.4394156L199.194627 83.6068818C198.851732 85.5203048 198.423634 87.4457198 197.922445 89.3297189L196.997469 89.0854366zM185.06581 28.7860755 185.828296 28.210376C187.007072 29.7610494 188.134714 31.3793254 189.179748 33.0204609L188.37177 33.5310111C187.341002 31.9121434 186.228692 30.3156178 185.06581 28.7860755zM199.034976 77.7091168C199.215123 75.7982177 199.316891 73.8551829 199.337286 71.9342316L200.293839 71.944519C200.27324 73.8915041 200.170198 75.8610626 199.987529 77.7983561L199.034976 77.7091168zM191.273616 38.5362813 192.121235 38.0943291C193.026025 39.8158312 193.870332 41.5986891 194.630957 43.3929356L193.74957 43.7638013C192.999089 41.993637 192.166177 40.2349828 191.273616 38.5362813v0zM199.157752 66.1544085C199.018817 64.2435094 198.797456 62.3108992 198.499543 60.4104246L199.44495 60.263439C199.746689 62.1896221 199.971296 64.1485445 200.111956 66.0854657L199.157752 66.1544085zM195.784713 49.1767835 196.69366 48.8790892C197.302603 50.7246666 197.844498 52.6268185 198.301342 54.5156811L197.371059 54.7390635C196.920332 52.8736403 196.385435 50.9982747 195.784713 49.1767835v0z" id="Shape" fill="#3f3d56"/><path d="M163.07109 133.480409C164.053265 132.749011 165.037134 131.981905 165.995358 131.2L166.616114 132.434488C165.644691 133.22705 164.647336 134.004916 163.651745 134.745946L163.07109 133.480409z" id="Path" fill="#3f3d56"/><path id="Path" fill="#6c6ce5" d="M10.6350711 70.3059219 25.4320567 55.9688596 38.8250995 68.945232 64.2358294 44.3243243 85.0805687 64.9058644V85.1027027H10.6350711z"/><path d="M249.924171 203.891892V299.632432H372.227488V203.891892H249.924171zM356.256762 229.49532H346.784386V219.95721H356.256762V229.49532z" id="Shape" fill="#3f3d56"/><path id="Rectangle" fill="#3f3d56" d="M53.1753555 168.432432h7.09004739v10.6378378H53.1753555z"/><path id="Rectangle" fill="#3f3d56" transform="translate(178.132771, 235.989668) rotate(45.000000) translate(-178.132771, -235.989668)" d="M174.217349 230.891949 182.077097 230.869716 182.048194 241.087388 174.188446 241.109621z"/><path id="Rectangle" fill="#3f3d56" transform="translate(154.880927, 58.078080) rotate(45.000000) translate(-154.880927, -58.078080)" d="M150.965504 52.9803602 158.825252 52.9581271 158.796349 63.1757995 150.936601 63.1980325z"/><path d="M258.78673 268.235705C258.435399 269.252125 258.065688 270.27118 257.687739 271.264865L257.014218 270.707892C257.387559 269.72718 257.752426 268.721613 258.098997 267.718919L258.78673 268.235705z" id="Path" fill="#3f3d56"/><path d="M257.014218 277.198896C255.915058 278.81434 254.734926 280.402918 253.506305 281.920415L252.756878 281.323053C253.968802 279.825644 255.133241 278.258474 256.217459 276.664808L257.014218 277.198896zM249.616166 286.337C248.264481 287.748792 246.835952 289.121842 245.370768 290.418121L244.730984 289.705666C246.176735 288.426985 247.585889 287.07256 248.91926 285.679895L249.616166 286.337zM240.79929 294.135765C239.233988 295.304932 237.597837 296.425433 235.936053 297.466816L235.422741 296.659844C237.062635 295.632613 238.676937 294.526787 240.221266 293.373402L240.79929 294.135765zM230.369278 299.548775 230.814873 300.394018C229.073462 301.298365 227.276183 302.141011 225.473319 302.898601L225.098578 302.019756C226.877608 301.272346 228.650883 300.441009 230.369278 299.548775zM219.641869 304.053759 219.942345 304.960095C218.078464 305.56882 216.166136 306.107494 214.258412 306.561131L214.034338 305.633051C215.916584 305.185707 217.803145 304.654239 219.641869 304.053759zM208.314 306.745527 208.45951 307.688563C206.519344 307.983474 204.541968 308.201107 202.582533 308.335422L202.516275 307.383469C204.449438 307.251073 206.400032 307.036429 208.314 306.745527v0zM141.958377 193.843641C140.763233 195.352865 139.6161 196.931832 138.548753 198.536986L137.746465 198.01127C138.828434 196.384234 139.991157 194.783645 141.202552 193.254054L141.958377 193.843641zM196.685852 307.543289 196.672783 308.497297C194.711463 308.470474 192.725791 308.361963 190.770629 308.174951L190.862882 307.225367C192.791879 307.409728 194.751022 307.516826 196.685852 307.543289zM135.54073 203.494002C134.61153 205.179012 133.741166 206.923828 132.95405 208.679878L132.07564 208.291842C132.87362 206.51198 133.755808 204.743632 134.697603 203.035988L135.54073 203.494002zM185.08617 306.433371 184.915747 307.37265C182.984047 307.027088 181.043542 306.597953 179.147385 306.096801L179.394598 305.174959C181.265466 305.669254 183.180299 306.09278 185.08617 306.433371zM130.804026 214.059047C130.164031 215.873519 129.592251 217.736244 129.104477 219.595686L128.174195 219.35516C128.668687 217.47073 129.248118 215.582762 129.896542 213.743958L130.804026 214.059047zM173.82633 303.458484 173.503975 304.357163C171.655811 303.703965 169.811855 302.966444 168.023507 302.165093L168.41894 301.295486C170.183624 302.086152 172.002793 302.813858 173.82633 303.458484zM127.867138 225.251666C127.534177 227.14533 127.276325 229.076013 127.100927 230.989604L126.143451 230.903281C126.32141 228.963517 126.582593 227.007042 126.92004 225.087751L127.867138 225.251666zM163.209692 298.700382 162.743646 299.534748C161.026756 298.589761 159.329939 297.562915 157.700083 296.482505L158.234039 295.689089C159.841863 296.755001 161.515926 297.767988 163.209692 298.700382zM126.812081 236.770653C126.796103 238.69544 126.860879 240.641892 127.004642 242.55586L126.045827 242.626838C125.900325 240.686654 125.834751 238.713759 125.850677 236.762906L126.812081 236.770653zM153.52642 292.281078 152.928522 293.028142C151.392927 291.816599 149.890161 290.526839 148.462058 289.194456L149.120547 288.499301C150.529199 289.813616 152.011589 291.086084 153.52642 292.281078v0zM127.678307 248.305719C127.981566 250.203145 128.369151 252.112288 128.830407 253.979885L127.896876 254.206839C127.4293 252.313959 127.036309 250.378765 126.728893 248.455132L127.678307 248.305719zM145.042806 284.364976 144.328555 285.003436C143.016829 283.558391 141.748594 282.038858 140.558958 280.487586L141.323876 279.909685C142.49761 281.440139 143.74869 282.939011 145.042806 284.364976zM130.4527 259.539488C131.066509 261.357882 131.765952 263.176885 132.531878 264.945798L131.648579 265.322482C130.872505 263.529609 130.163296 261.685885 129.541299 259.842703L130.4527 259.539488zM137.987512 275.165383 137.177447 275.679159C136.122576 274.040536 135.118787 272.33044 134.201107 270.612165L135.050545 270.16515C135.956409 271.862238 136.946671 273.54808 137.987512 275.165383z" id="Shape" fill="#3f3d56"/><path d="M147.118483 185.27401C146.230785 186.139404 145.348908 187.034639 144.49748 187.935135L143.57346 187.086629C144.436647 186.173815 145.330549 185.266118 146.230453 184.389189L147.118483 185.27401z" id="Path" fill="#3f3d56"/><path d="M354.01787 209.210811C353.931414 209.064815 351.89289 205.547223 351.186155 198.242854 350.537919 191.54148 350.95475 180.245791 356.623329 164.489235 367.362287 134.63949 354.148474 110.55507 354.013458 110.315166L354.665371 109.924324C354.699586 109.985156 358.109273 116.125737 360.123517 125.903674 362.784964 138.86716 361.815833 152.346055 357.329702 164.760694 346.60915 194.559477 354.579293 208.665988 354.66096 208.80514L354.01787 209.210811z" id="Path" fill="#3f3d56"/><ellipse id="Oval" fill="#6c6ce5" cx="350.957346" cy="102.832432" rx="5.31753555" ry="5.31891892"/><ellipse id="Oval" fill="#3f3d56" cx="365.137441" cy="122.335135" rx="5.31753555" ry="5.31891892"/><ellipse id="Oval" fill="#6c6ce5" cx="354.50237" cy="134.745946" rx="5.31753555" ry="5.31891892"/><ellipse id="Oval" fill="#6c6ce5" cx="368.682464" cy="145.383784" rx="5.31753555" ry="5.31891892"/><ellipse id="Oval" fill="#3f3d56" cx="350.957346" cy="163.113514" rx="5.31753555" ry="5.31891892"/><path d="M358.835176 210.983784C358.835176 210.983784 353.911532 197.813127 368.682464 187.935135L358.835176 210.983784z" id="Path" fill="#3f3d56"/><path d="M352.729858 209.210811C352.729858 209.210811 350.296156 194.9052 331.459716 195.027811L352.729858 209.210811z" id="Path" fill="#3f3d56"/><path d="M188.772512 288.994595C186.325184 288.994595 184.341232 287.010127 184.341232 284.562162 184.341232 282.114197 186.325184 280.12973 188.772512 280.12973 191.21984 280.12973 193.203791 282.114197 193.203791 284.562162 193.200993 287.008967 191.21868 288.991796 188.772512 288.994595zm0-8.126126999999997C186.733072 280.868468 185.079779 282.522191 185.079779 284.562162 185.079779 286.602133 186.733072 288.255856 188.772512 288.255856 190.811952 288.255856 192.465245 286.602133 192.465245 284.562162 192.462978 282.523132 190.811012 280.870736 188.772512 280.868468z" id="Shape" fill="#2f2e41"/><path d="M239.2891 37.2324324H232.199052V30.1405405H239.2891v7.0918919zM232.74444 36.6869023H238.743711V30.6860707H232.74444V36.6869023z" id="Shape" fill="#3f3d56"/><path d="M28.1751118 251.762162 23.042654 246.258117 28.5452673 241.124324 33.6777251 246.628373 28.1751118 251.762162zM23.8607575 246.286598 28.2036041 250.943865 32.8596597 246.599889 28.5167941 241.942622 23.8607575 246.286598z" id="Shape" fill="#2f2e41"/><path id="Path" fill="#efefef" d="M237.516588 202.118919H95.7156398V145.383784H213.666389z"/><path d="M239.2891 202.118919H79.7630332V132.972973H210.359783L210.470123 133.237029 239.2891 202.118919zM80.6288594 201.265266H237.995452L209.780174 133.826622H80.6288594V201.265266z" id="Shape" fill="#3f3d56"/><path id="Rectangle" fill="#6c6ce5" d="M118.758294 154.248649h70.9004739v5.31891892H118.758294z"/><path id="Rectangle" fill="#6c6ce5" d="M118.758294 168.432432h70.9004739v5.31891892H118.758294z"/><path id="Rectangle" fill="#6c6ce5" d="M118.758294 180.843243h70.9004739v5.31891892H118.758294z"/><path d="M116.985782 93.9675676H0V23.0486486H90.9135239L91.0075715 23.304175 116.985782 93.9675676zM.781385574 93.1882388H115.867119L90.3679293 23.8279774H.781385574V93.1882388z" id="Shape" fill="#3f3d56"/><path d="M85.0805687 86.8756757H10.6350711V31.9135135H85.0805687V86.8756757zM11.4228541 86.0960705H84.2927857V32.6931187H11.4228541V86.0960705z" id="Shape" fill="#3f3d56"/><ellipse id="Oval" fill="#6c6ce5" cx="116.985782" cy="95.7405405" rx="7.09004739" ry="7.09189189"/><ellipse id="Oval" fill="#6c6ce5" cx="237.516588" cy="202.118919" rx="7.09004739" ry="7.09189189"/><ellipse id="Oval" fill="#a0616a" cx="288.033175" cy="93.0810811" rx="11.521327" ry="11.5243243"/><path d="M279.292987 98.5266404C279.292987 98.5266404 283.345166 107.64479 277.77342 111.190736 272.201674 114.736682 286.89082 129.427027 286.89082 129.427027L303.099526 112.203863C303.099526 112.203863 294.488649 106.631659 296.008217 97.5135135L279.292987 98.5266404z" id="Path" fill="#a0616a"/><path d="M251.659885 136.518919 248.175462 156.572582c0 0-5.973298 12.032195000000002-5.973298 22.560367999999983C242.202164 189.661123 241.206627 191.666492 241.206627 191.666492 241.206627 191.666492 231.251129 211.720151 238.219976 212.722833 245.188823 213.725516 248.175474 192.167831 248.175474 192.167831 248.175474 192.167831 257.633195 168.604777 257.633195 161.084644L264.104265 144.540371 251.659885 136.518919z" id="Path" fill="#a0616a"/><path d="M323.471713 138.291892 324.39247 155.843012C324.39247 155.843012 327.615159 164.869302 325.313227 180.916039L323.471691 196.461319c0 0 4.143456999999955 17.551119999999997.0 18.052582C319.328235 215.015364 314.264006 203.481767 317.026313 196.962781V191.446712C317.026313 191.446712 314.264006 167.878068 315.184774 163.866381L311.962085 144.810878 323.471713 138.291892z" id="Path" fill="#a0616a"/><path id="Path" fill="#a0616a" d="M258.78673 274.256757 263.771919 287.221622 274.739336 285.227027 267.760071 271.264865z"/><path id="Path" fill="#a0616a" d="M306.360948 285.448649 304.872038 304.951351H317.279621L316.783318 288.01474z"/><path d="M266.743627 171.780652 265.264447 179.225334C265.264447 179.225334 262.306049 181.706896 262.306049 184.188459 262.306049 186.670021 261.319929 187.662645 261.319929 187.662645c0 0-.49306000000001404.0-.9861200000000281.9926120000000083C260.079073 189.197358 259.746842 189.698986 259.34769 190.144175 259.34769 190.144175 230.256793 219.922912 236.666654 234.812281 243.076514 249.70165 255.403109 279.976713 255.403109 279.976713 255.403109 279.976713 269.702041 275.509902 269.702041 272.035716L255.896192 232.827045 283.507874 204.040943 305.695846 234.31601C305.695846 234.31601 301.258249 287.421426 304.216667 287.917736 307.175084 288.414046 323.44624 291.888237 323.939308 290.399298 324.432376 288.91036 326.897702 222.900828 325.911571 220.419266 324.925439 217.937704 310.626523 188.158974 310.626523 188.158974 310.626523 188.158974 313.091854 185.181098 311.612643 184.188474 310.133432 183.19585 307.668109 173.765877 307.668109 173.765877 307.668109 173.765877 269.208958 167.313822 266.743627 171.780652z" id="Path" fill="#2f2e41"/><path d="M288.555841 118.52014 278.478718 112.332991C278.478718 112.332991 272.557767 112.547752 271.057968 114.04085 269.558168 115.533948 260.559242 119.515537 260.559242 119.515537 260.559242 119.515537 262.558998 179.239409 266.558514 177.248611 270.558031 175.257812 267.558381 173.764718 270.558027 175.257816 273.557673 176.750914 309.053356 177.248611 309.553297 177.248611 310.053238 177.248611 310.553163 176.253225 310.553163 176.253225L312.552919 145.893575 319.052133 120.510931 299.81071 111.697297 288.555841 118.52014z" id="Path" fill="#d0cde1"/><path d="M264.104265 118.789189H260.293231C260.293231 118.789189 255.053062 120.271492 252.671166 128.177227 250.289271 136.082961 249.336513 139.541692 250.289271 140.52991 251.242028 141.518128 264.104265 148.92973 264.104265 148.92973V118.789189z" id="Path" fill="#d0cde1"/><path d="M311.974541 118.789189 319.089501 119.29664C319.089501 119.29664 328.237305 140.609859 325.696248 141.624774 323.15519 142.639688 308.417062 150.251554 308.417062 148.72918 308.417062 147.206806 311.974541 118.789189 311.974541 118.789189z" id="Path" fill="#d0cde1"/><path d="M265.682591 281.540013 261.730564 280.12973 252.59616 291.882235C252.59616 291.882235 235.632266 303.634741 251.14213 303.164642 251.14213 303.164642 263.259196 301.284239 264.228565 297.993537 264.228565 297.993537 278.28436 294.232737 278.28436 291.882235 278.28436 289.531733 275.054159 283.265703 274.003506 283.108009 272.952852 282.950315 268.590689 284.830715 265.682591 281.540013z" id="Path" fill="#2f2e41"/><path d="M317.025699 299.686837C317.025699 299.686837 304.345407 299.494031 304.426488 299.834345 304.507569 300.174659 300.856448 307.97978 301.378038 310.906699 301.899629 313.833618 306.593927 317.73618 305.55075 319.687463 304.507573 321.638746 308.68028 327.492584 317.025699 327.980402 325.371118 328.46822 324.327941 319.687463 324.327941 319.687463L320.155234 310.418881 317.025699 299.686837z" id="Path" fill="#2f2e41"/><path d="M279.456257 81.0181634C278.842583 81.5190148 278.202131 81.9888914 277.537502 82.4258851 276.699426 83.0926147 275.925298 83.8299668 275.224392 84.6291075L274.433445 85.4782104C273.76035 86.2007891 273.046168 87.025481 273.07457 87.9939392 273.0851 88.3532947 273.200279 88.7019786 273.245391 89.0588642 273.424353 90.4745819 272.521944 92.030629 273.264782 93.2660805 273.479545 93.6232613 273.811719 93.9025377 274.048476 94.2466976 274.349719 94.687825 274.483167 95.2150418 274.426333 95.739504 275.224607 95.7708816 275.879441 95.0849269 276.129806 94.3574124 276.380172 93.629898 276.346306 92.8439737 276.468237 92.0868524 276.590168 91.3297311 276.932648 90.5280403 277.650106 90.1909677 279.180928 89.4717675 280.938771 91.3416569 282.572728 90.8756874 283.713587 90.5503309 284.315254 89.1942152 285.481657 88.9668128 286.316489 88.804053 287.120157 89.2796804 287.896148 89.6167958 288.67214 89.9539112 289.718154 90.1099606 290.266848 89.4850758 290.630125 89.0713532 290.668899 88.4083725 291.150733 88.1272282 291.728198 87.7902836 292.45137 88.2594181 292.888582 88.7537634 293.325794 89.2481086 293.808722 89.8525941 294.484421 89.8346024 295.380824 89.8107313 296.067438 88.6659992 296.918288 88.9375749 297.878643 89.2441049 297.43696 90.7176886 298.019649 91.5112709 298.512271 92.182193 299.543901 92.1426797 300.391774 92.0318328 300.682417 92.0600665 300.967803 91.9431391 301.147425 91.7222304 301.327014 91.5013218 301.375709 91.2074181 301.276275 90.944027L300.922126 86.4408707C300.92058 86.1305176 300.84976 85.8240783 300.714426 85.5421539 300.467868 85.1138454 299.957288 84.8969319 299.610081 84.538458 298.880056 83.7847463 298.91514 82.4634101 298.007353 81.9153307 297.535992 81.6307417 296.919426 81.6392852 296.451398 81.3496789 295.851201 80.9782773 295.65783 80.2344604 295.237384 79.6807034 294.636317 78.8890512 293.585466 78.5220105 292.569656 78.4212992 291.553845 78.3205879 290.528574 78.442052 289.507778 78.4101306 287.432511 78.3452123 285.357304 77.7851721 283.271916 78.113014 281.452458 78.3990902 280.688592 79.879466 279.456257 81.0181634z" id="Path" fill="#2f2e41"/></g></g></g></g></svg>