
<svg width="560" height="454" viewBox="0 0 560 454" xmlns="http://www.w3.org/2000/svg" xmlns:xlink="http://www.w3.org/1999/xlink"><title>2</title><desc>Created with Sketch.</desc><g id="Agency-2" stroke="none" stroke-width="1" fill="none" fill-rule="evenodd"><g id="Agency-1" transform="translate(-172.000000, -1602.000000)"><g id="2" transform="translate(172.000000, 1602.000000)"><path id="Rectangle-Copy-16" fill="#fff" d="M0 0h560v454H0z"/><g id="undraw_polaroid_gg6n" transform="translate(108.000000, 96.000000)" fill-rule="nonzero"><path d="M275.573868 237.216216H89.5602893C40.2607486 226.257242.0 188.510869.0 132.064052-.0071231854 123.525512.912590227 115.011607 2.74289918 106.673067L152.67803 82.4301724 268.343705 63.7297297C276.653061 69.1862403 284.560242 75.236221 292.003917 81.8327468L181.289688 124.225427 129.060865 144.225092 187.714776 129.591521 309.454157 99.2195279C316.849731 107.516445 323.571183 116.3948 329.554002 125.769379L292.738924 153.398953 334.333397 133.636822C334.509406 133.941501 334.684664 134.246683 334.859171 134.552365 360.956338 180.26484 328.061454 237.216216 275.573868 237.216216z" id="Path" fill="#f2f2f2"/><path d="M246.474227 50.8566832C218.241948 56.6468617 183.531283 63.9649239 147.842769 71.5721358 96.2423413 82.5742223 42.5999241 94.1867355 3.54639175 102.675676L3.57231934 102.575135C5.2459955 96.2206438 8.70386554 90.4692802 13.5429918 85.991237 43.1554482 58.2841611 80.3410372 39.8663269 120.444532 33.043445H120.44813C132.065715 31.0767267 143.83015 30.0903211 155.615364 30.0945946 187.099206 30.0506938 218.176758 37.1521313 246.474227 50.8566832v0z" id="Path" fill="#f2f2f2"/><path d="M35.4639175.0V262H292.57732V0H35.4639175zM268.825505 184.941178H59.8095256V22.5248856H268.825505V184.941178z" id="Shape" fill="#3f3d56"/><path d="M177.169157 68.0168437C170.754396 57.1938717 158.063301 56.6894751 158.063301 56.6894751 158.063301 56.6894751 145.696557 55.1103588 137.763364 71.5938778 130.368998 86.9578666 120.16383 101.792116 136.120416 105.388716L139.002637 96.4311826 140.787583 106.055593C143.059494 106.218754 145.338645 106.257649 147.614814 106.172104 164.703028 105.621207 180.976988 106.333279 180.452969 100.210356 179.756408 92.0707972 183.341445 78.4307041 177.169157 68.0168437z" id="Path" fill="#2f2e41"/><path d="M134.253806 169.945946 113.093493 185.012071C113.093493 185.012071 100.74998 198.27027 109.566777 198.27027 118.383574 198.27027 121.910297 186.820009 121.910297 186.820009L148.948454 174.767108 134.253806 169.945946z" id="Path" fill="#ffb8b8"/><path d="M142.917889 111.527027C142.917889 111.527027 124.826155 169.321145 130.569563 172.284944 136.312972 175.248744 148.948454 177.027027 148.948454 177.027027L142.917889 111.527027z" id="Path" fill="#d0cde1"/><path d="M142.917889 111.527027C142.917889 111.527027 124.826155 169.321145 130.569563 172.284944 136.312972 175.248744 148.948454 177.027027 148.948454 177.027027L142.917889 111.527027z" id="Path" fill="#000" opacity=".1"/><path d="M202.14433 185.878378H159.587629L189.823218 169.945946C190.489956 170.395911 191.129337 170.888357 191.737701 171.420467 196.221153 175.349613 199.78098 180.295275 202.14433 185.878378z" id="Path" fill="#2f2e41"/><ellipse id="Oval" fill="#ffb8b8" cx="155.154639" cy="82.3175676" rx="15.0721649" ry="15.0472973"/><path d="M154.632043 94.6612567c0 0 3.4802099999999996 11.572482300000004.0 15.836027299999998C151.151833 114.760828 173.773196 104.406503 173.773196 104.406503 173.773196 104.406503 165.652706 92.2249443 167.972846 86.7432432L154.632043 94.6612567z" id="Path" fill="#ffb8b8"/><path d="M187.443298 145.452219 186.204767 153.508229C186.204767 153.508229 186.829936 155.338327 187.590744 158.004064 188.581598 161.481843 189.802436 166.383718 190.150425 170.491152 190.51018 174.657452 189.967593 178.011679 187.384336 178.223515 183.680473 178.529491 181.751887 180.771517 179.829199 184.108108H137.164187C137.276246 182.272137 137.411922 180.365523 137.571141 178.405936 137.659622 177.229018 137.757919 176.036404 137.866033 174.828093 137.983997 173.439339 142.163136 147.353203 139.022021 141.739046 132.536159 130.146768 140.791384 123.496811 140.791384 123.496811 140.791384 123.496811 141.970953 114.669923 141.970953 111.727624 141.970953 109.420826 151.030031 106.755139 154.946214 105.707663 155.199815 105.642942 155.423937 105.578213 155.630346 105.531134 156.308611 105.354601 156.715566 105.254573 156.715566 105.254573L159.811932 103.989373C159.811932 103.989373 168.511251 102.312278 169.101038 101.13537 169.313351 100.711662 169.909038 100.364492 170.610884 100.064371 171.85532 99.5347364 173.441844 99.1581578 173.81931 98.7815327 174.358205 98.1632685 174.845418 97.5019851 175.276059 96.8043204 176.349473 95.4920311 177.882932 94.7035172 179.616901 94.2739178 185.951177 92.6792152 195.051546 95.8392377 195.051546 95.8392377L191.866697 116.582424 187.443298 145.452219z" id="Path" fill="#d0cde1"/><path d="M206.954839 132.77027 185.794527 147.836396C185.794527 147.836396 173.45101 161.094595 182.267807 161.094595 191.084605 161.094595 194.611325 149.644337 194.611325 149.644337L221.649485 137.591436 206.954839 132.77027z" id="Path" fill="#ffb8b8"/><path d="M169.635715 66.4707935 157.223363 60.1891892 149.435837 61.3566815C143.790826 62.202976 139.253792 66.2950894 137.992308 71.6780105L136.536082 77.8918919 145.364109 77.563844 147.830328 72.0041496v5.4680429L151.903785 77.3208105 154.268049 68.4694749 155.745692 77.8918919 170.226804 77.606346 169.635715 66.4707935z" id="Path" fill="#2f2e41"/><path d="M191.505155 96.7886456 195.585944 95.5945946c0 0 41.39086999999998 17.3137344 40.22493 32.2393694C234.644933 142.7596 236.393846 142.759596 229.398203 143.356624 222.402561 143.953651 201.998614 136.789345 202.581583 135.595294 203.164551 134.401243 207.245355 128.430988 207.245355 128.430988L191.505155 115.893458V96.7886456z" id="Path" fill="#d0cde1"/><ellipse id="Oval" fill="#ffb8b8" cx="169.340206" cy="82.3175676" rx="2.65979381" ry="2.65540541"/><path d="M239.917329 185.878378C239.802008 185.68054 237.082927 180.913941 236.140249 171.015981 235.275601 161.935126 235.831587 146.628633 243.392614 125.277322 257.716754 84.8287163 240.091535 52.1925516 239.91144 51.8674611L240.780996 51.3378378C240.826635 51.4202718 245.374634 59.7412127 248.06133 72.9910418 251.611296 90.5575223 250.31862 108.82242 244.334796 125.645171 230.035194 166.024742 240.666169 185.140085 240.775107 185.328647L239.917329 185.878378z" id="Path" fill="#3f3d56"/><ellipse id="Oval" fill="#44d7b6" cx="234.061856" cy="44.2567568" rx="7.09278351" ry="7.08108108"/><ellipse id="Oval" fill="#3f3d56" cx="255.340206" cy="69.0405405" rx="7.09278351" ry="7.08108108"/><ellipse id="Oval" fill="#44d7b6" cx="241.154639" cy="84.972973" rx="7.09278351" ry="7.08108108"/><ellipse id="Oval" fill="#44d7b6" cx="258.886598" cy="99.1351351" rx="7.09278351" ry="7.08108108"/><ellipse id="Oval" fill="#3f3d56" cx="235.835052" cy="122.148649" rx="7.09278351" ry="7.08108108"/><path d="M243.978619 187.648649C243.978619 187.648649 237.411224 170.451732 257.113402 157.554054L243.978619 187.648649z" id="Path" fill="#3f3d56"/><path d="M235.835052 185.878378C235.835052 185.878378 232.791751 168.023634 209.237113 168.176654L235.835052 185.878378z" id="Path" fill="#3f3d56"/></g></g></g></g></svg>