
<svg width="560" height="454" viewBox="0 0 560 454" xmlns="http://www.w3.org/2000/svg" xmlns:xlink="http://www.w3.org/1999/xlink"><title>3</title><desc>Created with Sketch.</desc><g id="Agency-2" stroke="none" stroke-width="1" fill="none" fill-rule="evenodd"><g id="Agency-1" transform="translate(-172.000000, -1602.000000)"><g id="3" transform="translate(172.000000, 1602.000000)"><path id="Rectangle-Copy-16" fill="#fff" d="M0 0h560v454H0z"/><g id="undraw_drag_5i9w" transform="translate(71.000000, 106.000000)" fill-rule="nonzero"><path d="M216.202543 205.751825C215.118254 205.751825 214.0229 205.734637 212.947771 205.701021L212.972197 204.919457C214.516001 204.96759 216.091481 204.98096 217.642535 204.959567L217.65322 205.741893C217.170423 205.748386 216.686864 205.751697 216.202543 205.751825zM222.355996 205.570376 222.3102 204.789579C223.856291 204.698282 225.422231 204.569933 226.964507 204.408348L227.046188 205.186089C225.492074 205.349201 223.914304 205.478699 222.355996 205.570376v0zM208.249192 205.448521C206.690122 205.328958 205.114642 205.17234 203.566261 204.982106L203.661675 204.205889C205.198226 204.394215 206.761493 204.55007 208.308729 204.668487L208.249192 205.448521zM231.713462 204.588267 231.596296 203.81511C233.132463 203.58171 234.680465 203.310877 236.196025 203.009482L236.348307 203.776529C234.820913 204.080213 233.261464 204.353342 231.713462 204.588267v0zM198.910235 204.302155C197.370061 204.040858 195.81538 203.74062 194.289514 203.409047L194.455346 202.644292C195.969569 202.973573 197.512228 203.27153 199.040764 203.530523L198.910235 204.302155zM240.941928 202.752397 240.754156 201.992993C242.262079 201.619781 243.778405 201.207229 245.261141 200.76717L245.483265 201.517421C243.989079 201.960902 242.461306 202.376513 240.941928 202.752397v0zM189.715165 202.303937C188.204376 201.901696 186.684045 201.459345 185.196346 200.988345L185.431829 200.242691C186.908268 200.709869 188.416957 201.148781 189.915915 201.547584L189.715165 202.303937zM249.962787 200.073849 249.706314 199.335067C251.169587 198.82587 252.641254 198.275406 254.081246 197.698601L254.371306 198.425155C252.920614 199.006169 251.437495 199.560827 249.962787 200.073849zM180.731354 199.461127C179.264072 198.921369 177.787633 198.338825 176.343444 197.729925L176.646862 197.008718C178.079987 197.613034 179.544971 198.190993 181.001186 198.726933L180.731354 199.461127zM258.689374 196.578974 258.365727 195.866932C259.77099 195.227854 261.183516 194.545611 262.563955 193.839303L262.91966 194.536062C261.528509 195.247721 260.105307 195.934913 258.689362 196.578974H258.689374zM172.041216 195.798936C170.630801 195.126245 169.215044 194.410769 167.833827 193.671987L168.202129 192.982104C169.57304 193.715144 170.977729 194.425285 172.377455 195.093012L172.041216 195.798936zM267.052239 192.300244 266.66524 191.621056C268.01287 190.851337 269.358214 190.04227 270.663096 189.216013L271.080629 189.876867C269.765808 190.709614 268.410546 191.525174 267.052227 192.300244H267.052239zM163.729669 191.354412C162.388143 190.555656 161.044711 189.713361 159.736964 188.851198L160.167093 188.197983C161.464725 189.053652 162.797852 189.889459 164.129263 190.6821L163.729669 191.354412zM274.994894 187.270895 274.547592 186.629923C275.816602 185.742546 277.082938 184.81315 278.31149 183.868096L278.787798 184.488458C277.550085 185.440756 276.273826 186.377025 274.994894 187.270895v0zM155.863907 186.169208C154.602351 185.252036 153.342111 184.291319 152.117928 183.313028L152.605687 182.701836C153.820502 183.672487 155.07119 184.625948 156.323027 185.53586L155.863907 186.169208zM282.450563 181.535618 281.946773 180.9374C283.129529 179.938483 284.30656 178.897547 285.445807 177.843237L285.976309 178.417758C284.828668 179.480098 283.642476 180.529061 282.450563 181.535618v0zM148.506719 180.289536C147.331787 179.259678 146.164488 178.188564 145.037439 177.105605L145.57863 176.541016C146.697265 177.615952 147.855595 178.679043 149.021558 179.701262L148.506719 180.289536zM289.357421 175.141399 288.800964 174.592077C289.891343 173.4862 290.969919 172.341742 292.006119 171.190792L292.587002 171.714125C291.542775 172.874256 290.456198 174.02712 289.357409 175.141399H289.357421zM141.717411 173.767743C140.639422 172.633218 139.57479 171.460491 138.553093 170.282417L139.143516 169.769782C140.157388 170.939067 141.213813 172.102624 142.283791 173.228365L141.717411 173.767743zM295.657418 168.142864 295.053638 167.646271C296.038695 166.446421 297.008503 165.208374 297.937056 163.965746L298.562973 164.43407C297.627533 165.686266 296.650109 166.934229 295.657418 168.142864v0zM135.551183 166.657665C134.583106 165.433371 133.629928 164.169347 132.717949 162.900742L133.352245 162.443863C134.257345 163.702536 135.203282 164.957012 136.164101 166.172521L135.551183 166.657665zM301.296412 160.595782 300.649887 160.156505C301.521593 158.871855 302.375343 157.549771 303.187144 156.226157L303.853514 156.635658C303.034851 157.969184 302.174597 159.301583 301.2964 160.595782H301.296412zM130.059699 159.019672C129.208032 157.712866 128.374498 156.368243 127.58198 155.022094L128.255224 154.624817C129.041817 155.960639 129.869059 157.295346 130.714243 158.591837L130.059699 159.019672zM306.226647 152.561279 305.542718 152.183106C306.293055 150.823967 307.022022 149.428144 307.710148 148.034254L308.410883 148.381106C307.717781 149.785315 306.98271 151.191824 306.226647 152.561279v0zM125.289941 150.916406C124.560974 149.537404 123.854147 148.122496 123.18911 146.711402L123.895937 146.377541C124.556026 147.777936 125.257308 149.182149 125.980737 150.550469L125.289941 150.916406zM310.400828 144.103909 309.684852 143.789906C310.307716 142.366213 310.905763 140.908137 311.462611 139.456554L312.19234 139.73694C311.631291 141.199972 311.028273 142.669126 310.400828 144.103909v0zM121.283686 142.415872C120.684486 140.976512 120.110662 139.50392 119.578252 138.038588L120.312941 137.771192C120.841157 139.225447 121.410589 140.686578 122.005017 142.11486L121.283686 142.415872zM313.780783 135.290514 313.038841 135.044507C313.5266 133.573445 313.986877 132.069911 314.4067 130.575163L315.159327 130.786783C314.736072 132.292988 314.271977 133.808365 313.780783 135.290514v0zM118.072615 133.576112C117.607566 132.085182 117.170571 130.562169 116.773837 129.048704L117.529899 128.850063C117.923577 130.352071 118.357333 131.863627 118.818754 133.343092L118.072615 133.576112zM316.328346 126.224228 315.566937 126.046984C315.916917 124.53925 316.236746 122.999432 316.518029 121.471064L317.286683 121.612399C317.003493 123.152987 316.680995 124.70427 316.328346 126.224228v0zM115.68535 124.466274C115.359409 122.938293 115.064397 121.381663 114.808685 119.838787L115.57963 119.710434C115.833626 121.241838 116.126355 122.786643 116.449811 124.30278L115.68535 124.466274zM318.031678 116.962372 317.256915 116.856168C317.467209 115.323982 317.644679 113.761621 317.784748 112.212247L318.563329 112.282536C318.422115 113.844145 318.243117 115.418346 318.031678 116.962372v0zM114.144977 115.176149C113.960636 113.627534 113.809308 112.050282 113.695002 110.488305L114.474728 110.431004C114.587889 111.981524 114.73826 113.54656 114.921264 115.08371L114.144977 115.176149zM318.881622 107.584005 318.100751 107.548851C318.170214 105.998715 318.205708 104.426423 318.205708 102.875903H318.987342C318.987342 104.438275 318.951856 106.022411 318.88163 107.584005H318.881622zM113.458175 105.784033C113.431459 104.824842 113.417921 103.846171 113.417722 102.875903 113.417722 102.273879 113.422874 101.673 113.433178 101.073266L114.214812 101.08702C114.204505 101.682167 114.199352 102.278461 114.199355 102.875903 114.199543 103.838911 114.213092 104.810326 114.239429 105.76264L113.458175 105.784033zM318.199975 101.784542C318.183951 100.233451 318.132039 98.6613504 318.046165 97.1115933L318.826274 97.0680451C318.912911 98.6296427 318.965198 100.213588 318.981608 101.77614L318.199975 101.784542zM114.400313 96.4165667 113.620204 96.3676713C113.717716 94.8045442 113.852443 93.2257589 114.020181 91.6750512L114.797234 91.7592804C114.630641 93.2983392 114.497251 94.8650924 114.400313 96.4165667zM317.680556 92.4522181C317.524456 90.9099126 317.330193 89.3494611 317.103488 87.8138406L317.876727 87.6996209C318.104964 89.2468942 318.300763 90.8191862 318.458371 92.3731406L317.680556 92.4522181zM115.405787 87.1252956 114.633314 87.0057288C114.872803 85.4580761 115.151029 83.8981996 115.460364 82.3688807L116.226365 82.5239691C115.919496 84.0416391 115.643368 85.5896751 115.405787 87.1252956zM316.314605 83.207558C316.016529 81.6814897 315.680289 80.1452942 315.314665 78.6417608L316.074159 78.4568736C316.44246 79.9718485 316.781373 81.5199041 317.081735 83.0574335L316.314605 83.207558zM117.257207 77.9654319 116.499022 77.7751975C116.878584 76.2600114 117.298977 74.732222 117.748569 73.2340358L118.496983 73.4590328C118.051053 74.9457579 117.6339 76.4618985 117.257207 77.9654319zM314.105587 74.1267601C313.669733 72.6371677 313.193421 71.1387938 312.690022 69.6726947L313.428908 69.4182861C313.936512 70.8956507 314.416634 72.405869 314.855924 73.9067308L314.105587 74.1267601zM119.947886 69.0024679 119.210525 68.7430955C119.729959 67.2641975 120.290805 65.7782391 120.877413 64.3264723L121.602179 64.6198446C121.019959 66.0603577 120.463311 67.5350506 119.947886 69.0024679zM311.070254 65.2885185C310.500052 63.8487799 309.889409 62.4038819 309.255094 60.9937465L309.96803 60.6724881C310.607304 62.0935095 311.222552 63.5494931 311.796931 65.0001139L311.070254 65.2885185zM123.456077 60.3197333 122.745814 59.993112C123.398638 58.5701817 124.093444 57.1432381 124.81096 55.7520115L125.505574 56.1107082C124.793405 57.4914398 124.103941 58.9074934 123.456077 60.3197333zM307.244908 56.7853199C306.545346 55.4042166 305.804151 54.0202462 305.041984 52.6723762L305.722095 52.2869436C306.49037 53.6453202 307.236901 55.0397934 307.941813 56.431591L307.244908 56.7853199zM127.746092 52.001594 127.068654 51.6111936C127.848376 50.2560675 128.670658 48.8995997 129.512783 47.5798074L130.171524 48.0007654C129.335887 49.3106261 128.519713 50.6567789 127.746092 52.001594zM302.652812 48.6629538C301.826906 47.3469793 300.962072 46.0359725 300.082351 44.7662216L300.724299 44.3204326C301.610886 45.5999272 302.482584 46.9208657 303.314605 48.2469635L302.652812 48.6629538zM132.777095 44.1162767 132.138204 43.6655198C133.039294 42.3864163 133.981413 41.1115021 134.938992 39.8761267L135.556514 40.3555324C134.606376 41.5817194 133.671128 42.8468857 132.777095 44.1162767zM297.335961 40.9900264C296.39403 39.755226 295.41317 38.5276856 294.419717 37.341589L295.018918 36.8390734C296.019623 38.0343389 297.008116 39.2710482 297.957297 40.5152247L297.335961 40.9900264zM138.503858 36.726747 137.908855 36.2194592C138.920055 35.0306909 139.974001 33.8474458 141.041306 32.7026208L141.612645 33.2362651C140.553547 34.3725119 139.507616 35.5469559 138.503858 36.726747zM291.3405 33.8289321C290.290559 32.6850458 289.201309 31.5512868 288.103665 30.4595426L288.654779 29.9045055C289.760818 31.0048475 290.858083 32.1470087 291.916036 33.2994888L291.3405 33.8289321zM144.876004 29.8922817 144.32947 29.333024C145.447152 28.2386082 146.603766 27.1565922 147.766864 26.1171974L148.287432 26.7008832C147.133123 27.7322866 145.985291 28.8060764 144.876004 29.8922817v0zM284.717222 27.240262C283.566525 26.195696 282.378427 25.1654544 281.186131 24.1781898L281.684574 23.5754074C282.885652 24.5701353 284.082907 25.6081963 285.242383 26.6607851L284.717222 27.240262zM151.839718 23.6682422 151.346233 23.0616146C152.555131 22.0762746 153.804471 21.104465 155.059774 20.1731602L155.525393 20.8015404C154.279458 21.7259841 153.039451 22.6903343 151.839718 23.6682422v0zM277.519171 21.2794166C276.27764 20.3437191 275.000236 19.4255927 273.722449 18.550635L274.163642 17.9050633C275.451356 18.7865142 276.7383 19.7115173 277.989375 20.6544748L277.519171 21.2794166zM159.336416 18.1069621 158.900182 17.4579364C160.193996 16.5866048 161.525982 15.7334193 162.8593 14.9214897L163.265382 15.5899876C161.94237 16.3956233 160.620514 17.2425072 159.336416 18.1069621v0zM269.804359 15.9981429C268.483441 15.1799078 267.127033 14.3823026 265.772916 13.6270957L266.153044 12.9437062C267.51785 13.7046437 268.884564 14.5085505 270.215783 15.3327039L269.804359 15.9981429zM167.304262 13.2560031 166.929078 12.5695587C168.297891 11.8198945 169.701435 11.0925735 171.10059 10.4074669L171.444083 11.1103362C170.055632 11.7900957 168.662777 12.5118778 167.304262 13.2560031zM261.635749 11.4434351C260.244993 10.7499029 258.820266 10.079903 257.40125 9.45209392L257.71726 8.73661739C259.147329 9.36920254 260.583119 10.0443775 261.984569 10.7432374L261.635749 11.4434351zM175.676292 9.15738769 175.365624 8.43960329C176.796072 7.81905424 178.259345 7.2239034 179.714605 6.67058356L179.992085 7.4021056C178.547881 7.95104442 177.095867 8.54161082 175.676296 9.15738769H175.676292zM253.078238 7.65748038C251.630993 7.09577009 250.149782 6.55981789 248.675441 6.06475397L248.924282 5.32291696C250.40969 5.82199421 251.902352 6.36194409 253.360662 6.92825055L253.078238 7.65748038zM184.394863 5.84376635 184.151384 5.10040379C185.636796 4.61297929 187.152356 4.15401192 188.655699 3.73668385L188.864657 4.49035747C187.372746 4.90463446 185.86884 5.35997184 184.394867 5.84376635H184.394863zM244.214655 4.68059185C242.7239 4.25524103 241.20338 3.8591101 239.695453 3.50328462L239.874838 2.74196768C241.394595 3.10046871 242.926566 3.49965072 244.429151 3.92806043L244.214655 4.68059185zM193.392238 3.34455843 193.218204 2.58190763C194.741017 2.23371765 196.292259 1.91646869 197.828622 1.63914183L197.967542 2.40886096C196.442633 2.68427502 194.903409 2.99904793 193.392238 3.34455843zM235.126621 2.53606722C233.604574 2.25012695 232.054282 1.99573399 230.518501 1.7799058L230.62689 1.00522282C232.174525 1.22276821 233.73701 1.47908569 235.270891 1.76711086L235.126621 2.53606722zM202.581204 1.68479448 202.477774.909340904C204.025018.702681585 205.598583.528872147 207.1546.393263704L207.222536 1.17253503C205.678352 1.30738071 204.116993 1.47966461 202.581204 1.68479448v0zM225.880217 1.23594649C224.340614 1.09078976 222.773529.978862332 221.222096.903802034L221.260259.122258045C222.823136.198085023 224.402063.310771305 225.953496.457093708L225.880217 1.23594649zM211.88333.8724816 211.850502.0909141411C213.287062.0309410058 214.751097.000383339894 216.202539.0L216.556334.000575009842 216.554044.782901325 216.202539.782326315C214.762169.782713567 213.308819.813079563 211.88333.8724816v0z" id="Shape" fill="#3f3d56"/><path d="M315.443038 186.240876C313.485573 186.240876 311.898734 184.652631 311.898734 182.693431 311.898734 180.734231 313.485573 179.145985 315.443038 179.145985 317.400503 179.145985 318.987342 180.734231 318.987342 182.693431 318.985104 184.651702 317.399575 186.238636 315.443038 186.240876v0zm0-6.503649999999993C313.811817 179.737226 312.489451 181.060764 312.489451 182.693431 312.489451 184.326097 313.811817 185.649635 315.443038 185.649635 317.074259 185.649635 318.396624 184.326097 318.396624 182.693431 318.394811 181.061516 317.073507 179.739041 315.443038 179.737226v0z" id="Shape" fill="#2f2e41"/><path d="M191.392405 69.7251289V95.2526816C191.391095 95.7436952 190.993603 96.1414144 190.502869 96.1427257H189.869753V229.12464C189.869324 236.787624 183.660896 243 176.00229 243H92.9569773C89.2795673 243 85.7529311 241.537551 83.1529712 238.935381 80.5530114 236.333211 79.0927284 232.804152 79.0934022 229.12464V100.806712H78.6350195C78.2887803 100.807228 78.0073696 100.527394 78.0057411 100.180961V85.6526428C78.0057112 85.4856432 78.0720004 85.3254749 78.1900195 85.2073883 78.3080385 85.0893018 78.4681153 85.0229747 78.6350195 85.0230046H79.0934022V79.5505938H78.6311312C78.2676403 79.5491946 77.9746835 79.2535629 77.9746835 78.8898624V64.5597639C77.9746835 64.1973905 78.2689649 63.9038547 78.6311312 63.9029191H79.0934022V56.4327674H78.6233546C78.4687589 56.4329741 78.3204357 56.3716176 78.21112 56.2622394 78.1018042 56.1528612 78.0404828 56.0044532 78.0406893 55.8497691V48.0298185C78.0399579 47.7069043 78.3006272 47.4443473 78.6233546 47.4429335H79.0934022V31.6086994C79.093694 23.9478066 85.3004615 17.7372263 92.9569773 17.7372263H176.002274C183.659549 17.7372263 189.867612 23.9470475 189.869738 31.6086994V68.8350848H190.502854C190.993598 68.8363769 191.391105 69.2341048 191.392405 69.7251289z" id="Path" fill="#3f3d56"/><rect id="Rectangle" fill="#e6e8ec" x="124.050633" y="21.2846715" width="17.721519" height="3.54744526" rx="1.77372263"/><ellipse id="Oval" fill="#e6e8ec" cx="141.772152" cy="23.0583942" rx="1.7721519" ry="1.77372263"/><path d="M182.531646 31.9068285V228.834291C182.529391 233.719579 178.575681 237.678832 173.699246 237.678832H93.8956973C91.5526262 237.682909 89.3042896 236.752516 87.6471198 235.093071 85.9899501 233.433625 85.0602505 231.181618 85.0632911 228.834291V31.9068285C85.0632911 29.5600481 85.9937238 27.3093577 87.6501409 25.6499333 89.3065581 23.990509 91.5531697 23.0583942 93.8956973 23.0583942H105.839908V24.5936858C105.839945 28.6175049 109.095974 31.8794457 113.112501 31.8794824H153.69864C157.715173 31.8794586 160.97121 28.6175103 160.971234 24.5936858V23.0583942H173.699246C176.041977 23.0583942 178.288973 23.9896324 179.945534 25.6492006 181.602095 27.3087688 182.531646 29.5598447 182.531646 31.9068285z" id="Path" fill="#ffd15c"/><path id="Rectangle" fill="#000" opacity=".2" d="M90.3797468 86.9124088h90.3797468v44.3430657H90.3797468z"/><path id="Rectangle" fill="#f2f2f2" d="M232.151899 37.2481752h90.3797468v44.3430657H232.151899z"/><path id="Rectangle" fill="#3f3d56" d="M90.3797468 156.087591h90.3797468v44.3430657H90.3797468z"/><ellipse id="Oval" fill="#fff" cx="170.126582" cy="47.8905109" rx="8.86075949" ry="8.86861314"/><path id="Path" fill="#3f3d56" d="M173.670886 47.6370657H170.379409V44.3430657H169.873361V47.6370657H166.582278V48.1439562H169.873361V51.4379562H170.379409V48.1439562H173.670886z"/><path id="Rectangle" fill="#3f3d56" d="M221.518987 31.9270073h90.3797468V76.270073H221.518987z"/><path d="M263.012447 61.9934582C265.442923 70.8098341 273.767856 76.270073 273.767856 76.270073 273.767856 76.270073 278.152205 67.4360839 275.72173 58.6196844 273.291254 49.8032849 264.966321 44.3430657 264.966321 44.3430657 264.966321 44.3430657 260.581972 53.1770587 263.012447 61.9934582z" id="Path" fill="#fff"/><path d="M265.772591 60.1144975C272.13435 66.481895 272.911392 76.270073 272.911392 76.270073 272.911392 76.270073 263.373985 75.734652 257.012223 69.3672544 250.650461 62.9998568 249.873418 53.2116788 249.873418 53.2116788 249.873418 53.2116788 259.410829 53.7470959 265.772591 60.1144975z" id="Path" fill="#ffd15c"/><path d="M126.556751 184.38032C128.987231 193.196695 137.31216 198.656934 137.31216 198.656934 137.31216 198.656934 141.696509 189.822941 139.266034 181.006565 136.835558 172.190189 128.510625 166.729927 128.510625 166.729927 128.510625 166.729927 124.126276 175.56392 126.556751 184.38032z" id="Path" fill="#fff"/><path d="M129.316891 184.275081C135.678649 190.642479 136.455696 200.430657 136.455696 200.430657 136.455696 200.430657 126.918285 199.895236 120.556523 193.527838 114.194761 187.160441 113.417722 177.372263 113.417722 177.372263 113.417722 177.372263 122.955129 177.90768 129.316891 184.275081z" id="Path" fill="#ffd15c"/><path d="M146.354641 184.38032C143.924162 193.196695 135.599233 198.656934 135.599233 198.656934 135.599233 198.656934 131.214883 189.822941 133.645359 181.006565 136.075834 172.190189 144.400767 166.729927 144.400767 166.729927 144.400767 166.729927 148.785117 175.56392 146.354641 184.38032z" id="Path" fill="#fff"/><path d="M143.594499 184.275081C137.232739 190.642479 136.455696 200.430657 136.455696 200.430657 136.455696 200.430657 145.993105 199.895236 152.354868 193.527838 158.716632 187.160441 159.493671 177.372263 159.493671 177.372263 159.493671 177.372263 149.956262 177.90768 143.594499 184.275081z" id="Path" fill="#ffd15c"/><path d="M241.012658 133.029197H233.924051V125.934307H241.012658V133.029197zM234.469328 132.483435H240.467381V126.480072H234.469328V132.483435z" id="Shape" fill="#3f3d56"/><path d="M36.1749088 177.372263 31.8987342 172.783618 36.483319 168.50365 40.7594937 173.092285 36.1749088 177.372263zM32.580324 172.807362 36.1986317 176.690063 40.077888 173.068551 36.4595802 169.185849 32.580324 172.807362z" id="Shape" fill="#2f2e41"/><ellipse id="Oval" fill="#3f3d56" cx="42.5316456" cy="53.2116788" rx="3.5443038" ry="3.54744526"/><path d="M43.4178899 65.6277372C38.7589625 65.6277372 34.5587831 62.8187796 32.7758888 58.5106769 30.9929944 54.2025742 31.9784957 49.2437334 35.2728548 45.9464544 38.567214 42.6491753 43.5216634 41.6628005 47.8259511 43.4472751 52.1302387 45.2317497 54.9367089 49.4356519 54.9367089 54.0987086 54.9295925 60.4630627 49.7766079 65.6206145 43.4178899 65.6277372zm0-22.1711978C37.5455847 43.4565394 32.7851409 48.2212026 32.7851409 54.0987126 32.7851409 59.9762226 37.5455847 64.7408858 43.4178899 64.7408858 49.290195 64.7408858 54.0506389 59.9762226 54.0506389 54.0987126 54.0439262 48.2239878 49.2874122 43.463258 43.4178899 43.4565394v0z" id="Shape" fill="#2f2e41"/><path id="Rectangle" fill="#3f3d56" d="M0 241.226277h409.367089v1.77372263H0z"/><path id="Rectangle" fill="#3f3d56" d="M108.101266 81.5912409h90.3797468v44.3430657H108.101266z"/><path id="Rectangle" fill="#fff" d="M154.177215 97.5547445h1.7721519v30.1532847H154.177215z"/><ellipse id="Oval" fill="#ffd15c" cx="154.177215" cy="97.5547445" rx="3.5443038" ry="3.54744526"/><path d="M155.949367 113.518248C155.949367 113.518248 155.289962 101.60292 141.772152 102.987935" id="Path" fill="#fff"/><path d="M280 202.503177 229.305209 218.167883 166.242636 178.863441 166.2398 178.86064 166.03306 178.734761 165.999044 178.712397 165.497755 178.401885 159.493671 174.670338C159.505012 174.56964 159.519185 174.471729 159.538972 174.37663 159.630997 173.915496 159.843901 173.486278 160.156423 173.131842 160.265236 173.004765 160.384587 172.88687 160.513236 172.779383H160.516073C160.572735 172.731834 160.632198 172.684269 160.694497 172.639521 160.756792 172.591973 160.821921 172.547219 160.889884 172.505258 162.051077 171.73601 163.801303 171.408717 165.625166 171.310816 169.563909 171.126092 173.482795 171.965234 176.990463 173.744443 184.079244 177.285777 199.315949 184.253784 201.692127 179.985148 204.80745 174.390613 169.406061 112.011535 169.406061 112.011535 166.491802 104.612759 168.624395 102.195914 169.961145 101.435066 170.000833 101.412683 170.040451 101.390299 170.077306 101.370716 170.218905 101.298788 170.365596 101.23709 170.516226 101.186106 170.594941 101.157911 170.675348 101.134555 170.756985 101.116173 170.778388 101.110211 170.800139 101.105541 170.822117 101.10219L175.517777 107.267363 175.588582 107.359676 175.840607 107.692553 175.91708 107.79325 204.382633 145.159168C247.997143 121.941845 263.007333 184.041195 263.007333 184.041195L280 202.503177z" id="Path" fill="#fbbebe"/><path d="M175.443038 105.762532C175.252761 106.177016 174.850091 106.435406 174.413897 106.422925 174.272458 106.422404 174.131684 106.402467 173.995118 106.363617 173.045154 106.09405 171.944501 104.994332 171.12222 103.49296 170.320328 102.026628 169.990956 100.552201 170.177371 99.5737463 170.30505 99.5044359 170.437319 99.444983 170.57314 99.395855 170.644117 99.3686855 170.716619 99.3461799 170.79023 99.3284672 170.460794 100.01041 170.657432 101.5603 171.566559 103.223412 172.309659 104.584617 173.315797 105.614267 174.125359 105.840695 174.325679 105.928999 174.55358 105.913465 174.741476 105.798698 174.929372 105.683931 175.055691 105.483109 175.082973 105.255785L175.146817 105.344738 175.374066 105.6655 175.443038 105.762532z" id="Path" fill="#3f3d56"/><path d="M164.782973 175.59854 164.752358 175.579016 164.301168 175.307938C164.303717 174.611959 163.753143 173.471546 162.537238 172.326236 161.509956 171.366519 160.317012 170.736473 159.493671 170.70717 159.591609 170.596232 159.699032 170.493309 159.814824 170.399472H159.817376C159.868376 170.357962 159.921896 170.316437 159.977969 170.277372 161.087884 170.591051 162.093074 171.176925 162.89408 171.977027 164.229786 173.234662 164.963949 174.66813 164.782973 175.59854z" id="Path" fill="#3f3d56"/><path d="M372.956477 177.596962C384.325862 210.413563 380.332923 241.226277 380.332923 241.226277 380.332923 241.226277 357.906569 218.832777 346.537192 186.016176 335.167815 153.199576 339.160746 122.386861 339.160746 122.386861 339.160746 122.386861 361.587091 144.780366 372.956477 177.596962z" id="Path" fill="#ffd15c"/><path d="M385.524538 177.596962C374.155154 210.413563 378.148088 241.226277 378.148088 241.226277 378.148088 241.226277 400.57444 218.832777 411.94382 186.016176 423.313201 153.199576 419.320266 122.386861 419.320266 122.386861 419.320266 122.386861 396.893922 144.780366 385.524538 177.596962z" id="Path" fill="#ffd15c"/><path d="M389.843358 177.08444C390.569545 212.350041 377.897156 241.226277 377.897156 241.226277 377.897156 241.226277 364.047385 212.925683 363.321199 177.660086 362.595012 142.394488 375.267401 113.518248 375.267401 113.518248 375.267401 113.518248 389.117172 141.818842 389.843358 177.08444z" id="Path" fill="#3f3d56"/><ellipse id="Oval" fill="#000" cx="375.696203" cy="145.445255" rx="3.5443038" ry="3.54744526"/><ellipse id="Oval" fill="#000" cx="369.493671" cy="174.711679" rx="2.65822785" ry="2.66058394"/><ellipse id="Oval" fill="#3f3d56" cx="346.455696" cy="155.20073" rx="2.65822785" ry="2.66058394"/><ellipse id="Oval" fill="#3f3d56" cx="413.797468" cy="137.463504" rx="2.65822785" ry="2.66058394"/><ellipse id="Oval" fill="#3f3d56" cx="357.088608" cy="174.711679" rx="2.65822785" ry="2.66058394"/><ellipse id="Oval" fill="#3f3d56" cx="397.848101" cy="162.29562" rx="2.65822785" ry="2.66058394"/><ellipse id="Oval" fill="#3f3d56" cx="358.860759" cy="203.091241" rx="2.65822785" ry="2.66058394"/><ellipse id="Oval" fill="#3f3d56" cx="397.848101" cy="188.90146" rx="2.65822785" ry="2.66058394"/><ellipse id="Oval" fill="#000" cx="381.898734" cy="190.675182" rx="2.65822785" ry="2.66058394"/></g></g></g></g></svg>