
<svg width="1010" height="482" viewBox="0 0 1010 482" xmlns="http://www.w3.org/2000/svg" xmlns:xlink="http://www.w3.org/1999/xlink"><title>Group</title><desc>Created with Sketch.</desc><g id="Single-Portfolio" stroke="none" stroke-width="1" fill="none" fill-rule="evenodd"><g transform="translate(-361.000000, -191.000000)" id="Group"><g transform="translate(361.000000, 191.000000)"><rect id="Rectangle" fill="#ffd15c" x="0" y="0" width="1010" height="482" rx="20"/><g id="undraw_site_content_ihgn" transform="translate(291.000000, 53.000000)" fill-rule="nonzero"><path id="Path" fill="#efefef" d="M95 1e2H12V45H88.2929786z"/><circle id="Oval" fill="#3f3d56" cx="65" cy="61" r="8"/><path d="M86 28.0835398C86.9590624 27.0410938 87.9523768 26.0037491 88.9526238 25L90 25.9575397C89.0122197 26.9480364 88.031967 27.9716271 87.085877 29L86 28.0835398z" id="Path" fill="#3f3d56"/><path d="M94 20.6051751C95.6742909 19.1166591 97.430301 17.6810524 99.2195851 16.3384027L99.8766621 17.2166558C98.1115396 18.5416465 96.3789481 19.9578612 94.7273774 21.4263309L94 20.6051751zM104.774222 12.5198436C106.669229 11.3299108 108.638041 10.2049278 110.625421 9.17590285L111.128618 10.1513144C109.167707 11.1662411 107.225606 12.2759569 105.356265 13.4498011L104.774222 12.5198436zM116.732993 6.32948346C118.794663 5.4705095 120.920693 4.68588124 123.052434 3.99665141L123.389036 5.04153023C121.285474 5.72117464 119.187768 6.4956669 117.153764 7.34300206L116.732993 6.32948346zM129.792394 3.25540125 129.541472 2.18708237C131.722059 1.67317011 133.946731 1.24388395 136.153313.910930398L136.316422 1.99660142C134.13906 2.32494729 131.944113 2.74844789 129.792394 3.25540125zM142.9212 1.2775277 142.847922.182280286C145.079409.032546409 147.344432-.0253993694 149.580099.0101488313L149.562829 1.10795507C147.357071 1.07261898 145.122548 1.12982012 142.9212 1.27750965V1.2775277zM156.19585 1.4906048 156.304141.398426163C158.530362.620037175 160.775615.938323768 162.977323 1.344391L162.778989 2.42404179C160.606852 2.0232637 158.392004 1.70923729 156.19585 1.49058675V1.4906048zM197.259783 146.128593C199.009749 144.785672 200.726593 143.351415 202.362835 141.865345L203.098699 142.678752C201.440092 144.185058 199.699883 145.638974 197.926153 147L197.259783 146.128593zM169.261882 3.899511 169.54839 2.84007353C171.706212 3.42623299 173.867628 4.11031359 175.972965 4.87326182L175.600296 5.90531495C173.523104 5.15275543 171.390565 4.47775932 169.261882 3.899511zM207.097659 137.194342C208.604129 135.580074 210.062695 133.88252 211.43255 132.148808L212.291727 132.830375C210.903088 134.587536 209.424753 136.307988 207.897927 137.943878L207.097659 137.194342zM181.752435 8.42629478 182.208471 7.42789443C184.242705 8.36085757 186.262796 9.38944478 188.213401 10.4857166L187.67756 11.4429051C185.752918 10.3614581 183.759553 9.3463916 181.752435 8.42629478zM215.340445 126.76403C216.564529 124.923493 217.727056 123.009829 218.795899 121.076002L219.754407 121.607889C218.671019 123.567657 217.492844 125.507279 216.252513 127.372546L215.340445 126.76403zM193.335898 14.9350182 193.948102 14.0249536C195.802358 15.2770518 197.627916 16.6219309 199.373872 18.0221698L198.689268 18.8790994C196.966397 17.4974988 195.165406 16.1705856 193.335898 14.9350182zM221.775074 115.123901C222.682745 113.108029 223.518062 111.029603 224.257457 108.946836L225.289981 109.314593C224.540294 111.4258 223.693955 113.532026 222.774018 115.575183L221.775074 115.123901zM203.700642 23.2485451 204.453158 22.4508881C206.079252 23.990928 207.659851 25.6164966 209.151227 27.2827672L208.335418 28.015488C206.864236 26.3716691 205.304808 24.7679971 203.700642 23.2485451zM226.225053 102.586316C226.791623 100.445843 227.275221 98.2583534 227.662339 96.0846421L228.741201 96.2774878C228.348524 98.4808896 227.858272 100.698101 227.28432 102.86762L226.225053 102.586316zM212.561118 33.1485994 213.434303 32.4856528C214.784218 34.2713304 216.075575 36.1348558 217.27233 38.0247051L216.347047 38.6126291C215.166629 36.7484222 213.89283 34.9099435 212.561118 33.1485994zM228.558371 89.4859176C228.764673 87.2854222 228.881216 85.0479209 228.904571 82.8358498L230 82.8476962C229.97641 85.0897465 229.858408 87.3577912 229.649219 89.5886811L228.558371 89.4859176zM219.670192 44.3764469 220.640871 43.8675169C221.677022 45.8499124 222.643908 47.902962 223.514963 49.9691261L222.505613 50.3961964C221.646176 48.3577641 220.692339 46.3325863 219.670192 44.3764469v0zM228.698972 76.1800957C228.539867 73.9796002 228.286368 71.7541033 227.945203 69.5656122L229.027866 69.3963509C229.373413 71.6144467 229.630629 73.8702434 229.791711 76.1007046L228.698972 76.1800957zM224.836225 56.629515 225.877136 56.2867052C226.574487 58.4119795 227.195056 60.6024021 227.718226 62.7775215L226.652882 63.0347574C226.136717 60.8866298 225.524161 58.7270529 224.836225 56.629515v0z" id="Shape" fill="#3f3d56"/><path d="M187 153.572413C188.10823 152.74736 189.21837 151.882027 190.299575 151L191 152.392563C189.903903 153.286611 188.778545 154.164082 187.655177 155L187 153.572413z" id="Path" fill="#3f3d56"/><path id="Path" fill="#6c6ce5" d="M12 80.9456509 29.0935893 64.4211604 44.5653333 79.3773585 73.92 51 98 74.7216981V98H12z"/><path d="M287 234V344H427V234H287zM408.718389 263.416766H397.875407V252.458064H408.718389V263.416766z" id="Shape" fill="#3f3d56"/><path id="Rectangle" fill="#3f3d56" d="M61 194h8v12H61z"/><path id="Rectangle" fill="#3f3d56" transform="translate(204.328767, 271.244222) rotate(45.000000) translate(-204.328767, -271.244222)" d="M199.82704 265.386331 208.85177 265.369965 208.830494 277.102113 199.805764 277.11848z"/><path id="Rectangle" fill="#3f3d56" transform="translate(177.657533, 66.754378) rotate(45.000000) translate(-177.657533, -66.754378)" d="M173.155807 60.8964873 182.180536 60.880121 182.15926 72.6122694 173.134531 72.6286357z"/><path d="M297 308.58296C296.603578 309.729531 296.186419 310.879075 295.759962 312L295 311.371707C295.421256 310.265416 295.832951 309.131087 296.224002 308L297 308.58296z" id="Path" fill="#3f3d56"/><path d="M295 318.87912C293.734631 320.743473 292.376047 322.576819 290.961641 324.328134L290.09889 323.63873C291.494075 321.9106 292.834593 320.101958 294.08276 318.26274L295 318.87912zM286.483258 329.425229C284.92718 331.05455 283.282637 332.639162 281.595897 334.135172L280.859368 333.312942C282.523738 331.83724 284.145975 330.274124 285.68097 328.666877L286.483258 329.425229zM276.333147 338.425633C274.53115 339.774946 272.647589 341.068095 270.73452 342.269935L270.143589 341.338623C272.031458 340.153117 273.889864 338.876904 275.667717 337.545804L276.333147 338.425633zM264.325971 344.672684 264.838947 345.648162C262.83421 346.691851 260.765156 347.664333 258.689674 348.538652L258.258267 347.524394C260.306311 346.661823 262.34773 345.702393 264.325971 344.672684zM251.976426 349.871799 252.322339 350.917783C250.176613 351.620302 247.975114 352.241974 245.778916 352.765507L245.520958 351.694429C247.687826 351.178157 249.859662 350.564801 251.976426 349.871799zM238.935625 352.978315 239.103138 354.066656C236.869592 354.407007 234.593209 354.658173 232.33748 354.813183L232.261203 353.714552C234.486686 353.561756 236.732238 353.31404 238.935625 352.978315v0zM162.5461 222.680431C161.170233 224.422197 159.849637 226.244452 158.620892 228.09693L157.697287 227.490211C158.942865 225.61248 160.281409 223.765272 161.675984 222L162.5461 222.680431zM225.549138 353.898997 225.534092 355C223.276193 354.969043 220.99026 354.843813 218.739449 354.627986L218.845653 353.53209C221.066342 353.744857 223.321734 353.868457 225.549138 353.898997zM155.158014 233.817726C154.088306 235.762364 153.086331 237.776022 152.180192 239.802646L151.168954 239.35482C152.0876 237.300716 153.103187 235.2599 154.187395 233.289141L155.158014 233.817726zM212.195421 352.618063 211.999228 353.702066C209.775427 353.30326 207.54149 352.808004 205.358608 352.229633L205.643203 351.165753C207.796973 351.73621 210.001356 352.224993 212.195421 352.618063zM149.705054 246.01064C148.968283 248.104687 148.310042 250.254422 147.74851 252.400369L146.677555 252.122782C147.246821 249.947998 147.913871 247.76913 148.660345 245.647002L149.705054 246.01064zM199.232934 349.184804 198.861835 350.221951C196.734202 349.468108 194.611415 348.61695 192.552643 347.692125L193.007872 346.688529C195.039401 347.601021 197.133654 348.440852 199.232934 349.184804zM146.324067 258.927826C145.940757 261.113267 145.643915 263.34143 145.441995 265.549869L144.339735 265.450245C144.544604 263.211601 144.845281 260.953671 145.233754 258.738655L146.324067 258.927826zM187.010912 343.69357 186.474393 344.656495C184.497886 343.565904 182.544485 342.380841 180.668172 341.13396L181.28287 340.218294C183.13382 341.448443 185.061024 342.617512 187.010912 343.69357zM145.109471 272.221666C145.091077 274.443025 145.165648 276.689388 145.33115 278.898261L144.227348 278.980176C144.059844 276.741047 143.984354 274.464167 144.002689 272.212725L145.109471 272.221666zM175.863394 336.285174 175.175085 337.147347C173.407286 335.749128 171.67728 334.260642 170.033229 332.722964L170.791291 331.920698C172.41295 333.437524 174.119498 334.906055 175.863394 336.285174v0zM146.106682 285.534063C146.455798 287.723845 146.901991 289.92715 147.432997 292.082508L146.358302 292.344431C145.820022 290.159895 145.367605 287.926526 145.013704 285.706497L146.106682 285.534063zM166.096938 327.149354 165.274682 327.886188C163.764604 326.218491 162.304594 324.464827 160.935069 322.674533L161.815653 322.007589C163.166872 323.773857 164.607133 325.503676 166.096938 327.149354zM149.300602 298.498738C150.007228 300.597312 150.812436 302.696588 151.694181 304.738056L150.677316 305.17278C149.783888 303.10366 148.967437 300.975854 148.251385 298.848673L149.300602 298.498738zM157.974784 316.532282 157.042226 317.125221C155.827843 315.234117 154.672268 313.260529 153.615821 311.277501L154.593707 310.76161C155.63655 312.720186 156.776553 314.665783 157.974784 316.532282z" id="Shape" fill="#3f3d56"/><path d="M169 212.998121C167.998373 213.974328 167.003313 214.984197 166.042611 216L165 215.042844C165.973971 214.013145 166.982598 212.989219 167.997998 212L169 212.998121z" id="Path" fill="#3f3d56"/><path d="M406.453318 240C406.355767 239.832368 404.055614 235.793496 403.258175 227.406674 402.526743 219.712207 402.997071 206.742581 409.393168 188.651022 421.510388 154.377769 406.600684 126.724218 406.448341 126.448761L407.183921 126C407.222527 126.069847 411.069821 133.120416 413.342578 144.34737 416.345601 159.231947 415.252089 174.708314 410.190198 188.962709 398.093747 223.177448 407.086795 239.374439 407.178944 239.534212L406.453318 240z" id="Path" fill="#3f3d56"/><circle id="Oval" fill="#6c6ce5" cx="402" cy="118" r="6"/><circle id="Oval" fill="#3f3d56" cx="419" cy="141" r="6"/><circle id="Oval" fill="#6c6ce5" cx="406" cy="155" r="6"/><circle id="Oval" fill="#6c6ce5" cx="423" cy="167" r="6"/><circle id="Oval" fill="#3f3d56" cx="402" cy="188" r="6"/><path d="M411.888889 242C411.888889 242 406.333333 227.142857 423 216L411.888889 242z" id="Path" fill="#3f3d56"/><path d="M405 241C405 241 402.139532 224.862573 380 225.000884L405 241z" id="Path" fill="#3f3d56"/><path d="M217 332C214.238576 332 212 329.761424 212 327 212 324.238576 214.238576 322 217 322 219.761424 322 222 324.238576 222 327 221.996843 329.760115 219.760115 331.996843 217 332zM217 322.833333C214.698814 322.833333 212.833333 324.698814 212.833333 327 212.833333 329.301186 214.698814 331.166667 217 331.166667 219.301186 331.166667 221.166667 329.301186 221.166667 327 221.164109 324.699874 219.300126 322.835891 217 322.833333z" id="Shape" fill="#2f2e41"/><path d="M274 43h-8V35h8v8zM266.615385 42.3846154H273.384615V35.6153846H266.615385V42.3846154z" id="Shape" fill="#3f3d56"/><path d="M32.7911689 289 27 282.791169 33.2088311 277 39 283.208835 32.7911689 289zM27.9231007 282.823296 32.823318 288.076921 38.0769423 283.176704 33.1767035 277.923079 27.9231007 282.823296z" id="Shape" fill="#2f2e41"/><path id="Path" fill="#efefef" d="M273 233H110V168H245.584229z"/><path d="M274 232H91V153H240.813793L240.940371 153.301686 274 232zM91.9932308 231.024692H272.515995L240.148897 153.975304H91.9932308v77.049388z" id="Shape" fill="#3f3d56"/><path id="Rectangle" fill="#6c6ce5" d="M136 177h82v6H136z"/><path id="Rectangle" fill="#6c6ce5" d="M136 194h82v6H136z"/><path id="Rectangle" fill="#6c6ce5" d="M136 208h82v6H136z"/><path d="M134 108H0V26H104.135836L104.243562 26.2954523 134 108zM.895028996 107.098901H132.718641L103.510891 26.9010989H.895028996V107.098901z" id="Shape" fill="#3f3d56"/><path d="M98 1e2H12V36H98v64zM12.9100529 99.0921986H97.0899471V36.9078014H12.9100529V99.0921986z" id="Shape" fill="#3f3d56"/><circle id="Oval" fill="#6c6ce5" cx="134" cy="110" r="8"/><circle id="Oval" fill="#6c6ce5" cx="273" cy="233" r="8"/><circle id="Oval" fill="#a0616a" cx="330" cy="107" r="13"/><path d="M320.138077 113.142856C320.138077 113.142856 324.710321 123.428574 318.423485 127.428574 312.136648 131.428574 328.711033 148 328.711033 148L347 128.571431C347 128.571431 337.283984 122.285713 338.998576 112L320.138077 113.142856z" id="Path" fill="#a0616a"/><path d="M288.519683 157 284.465197 179.884551C284.465197 179.884551 277.51465 193.615278 277.51465 205.629667 277.51465 217.644056 276.35624 219.932514 276.35624 219.932514 276.35624 219.932514 264.771994 242.817061 272.880964 243.961288 280.989935 245.105515 284.465211 220.504626 284.465211 220.504626 284.465211 220.504626 295.470243 193.615278 295.470243 185.033561L303 166.153806 288.519683 157z" id="Path" fill="#a0616a"/><path d="M370.986799 159 372.025728 179.028735C372.025728 179.028735 375.662024 189.329227 373.064657 207.641212L370.986775 225.38095c0 0 4.675236999999981 20.02873599999998.0 20.600986999999975C366.311537 246.554189 360.597355 233.392444 363.714182 225.953202V219.658453C363.714182 219.658453 360.597355 192.762727 361.636296 188.184728L358 166.439243 370.986799 159z" id="Path" fill="#a0616a"/><path id="Path" fill="#a0616a" d="M297 315.375 302.625 330 315 327.75 307.125 312z"/><path id="Path" fill="#a0616a" d="M351.68 328 350 350h14L363.44 330.894676z"/><path d="M305.663948 196.816153 303.962202 205.399367C303.962202 205.399367 300.558663 208.26044 300.558663 211.121512 300.558663 213.982585 299.424165 215.127013 299.424165 215.127013c0 0-.5672490000000039.0-1.1344980000000078 1.1444149999999809C297.996602 216.896433 297.614381 217.474777 297.155169 217.98805 297.155169 217.98805 263.687065 252.320915 271.061395 269.487348 278.435726 286.65378 292.617061 321.558876 292.617061 321.558876 292.617061 321.558876 309.067505 316.408946 309.067505 312.403445L293.184337 267.198505 324.950655 234.010082 350.477176 268.915181C350.477176 268.915181 345.371868 330.142126 348.775429 330.714338 352.17899 331.28655 370.898411 335.292055 371.465669 333.575411 372.032927 331.858766 374.869203 255.75425 373.734692 252.893177 372.600181 250.032104 356.149755 215.699248 356.149755 215.699248 356.149755 215.699248 358.986035 212.265959 357.284253 211.121531 355.58247 209.977102 352.746198 199.104982 352.746198 199.104982 352.746198 199.104982 308.500229 191.666201 305.663948 196.816153z" id="Path" fill="#2f2e41"/><path d="M331.068378 136.800506 319.525655 129.726784C319.525655 129.726784 312.743571 129.972319 311.025643 131.679367 309.307716 133.386415 299 137.938537 299 137.938537 299 137.938537 301.290597 206.220402 305.871797 203.944337 310.452996 201.668272 307.017082 199.961228 310.452992 201.668276 313.888901 203.375324 354.547017 203.944337 355.119669 203.944337 355.692321 203.944337 356.264954 202.80632 356.264954 202.80632L358.555552 168.096354 366 139.076562 343.960136 129 331.068378 136.800506z" id="Path" fill="#d0cde1"/><path d="M303 137H298.699849C298.699849 137 292.787145 138.72129 290.099551 147.90164 287.411958 157.08199 286.336921 161.09836 287.411958 162.245905 288.486994 163.39345 303 172 303 172V137z" id="Path" fill="#d0cde1"/><path d="M357.214758 137 365.644273 137.589266C365.644273 137.589266 376.482219 162.338744 373.471678 163.51729 370.461136 164.695836 353 173.534937 353 171.767116 353 169.999295 357.214758 137 357.214758 137z" id="Path" fill="#d0cde1"/><path d="M305.406704 323.590868 300.830116 322 290.252153 335.257399C290.252153 335.257399 270.607363 348.514799 288.568335 347.984505 288.568335 347.984505 302.600327 345.863318 303.72289 342.151246 303.72289 342.151246 320 337.90888 320 335.257399 320 332.605919 316.259313 325.53753 315.042619 325.359644 313.825924 325.181758 308.774385 327.30294 305.406704 323.590868z" id="Path" fill="#2f2e41"/><path d="M363.713489 344.063289C363.713489 344.063289 349.40578 343.838998 349.497267 344.234885 349.588754 344.630772 345.46904 353.710472 346.057573 357.115358 346.646105 360.520243 351.94288 365.060095 350.765819 367.330023 349.588759 369.599952 354.297001 376.409723 363.713489 376.977201 373.129978 377.54468 371.952918 367.330023 371.952918 367.330023L367.244676 356.547879 363.713489 344.063289z" id="Path" fill="#2f2e41"/><path d="M320.551122 93.5620624C319.837049 94.1552965 319.091818 94.7118424 318.318454 95.2294401 317.343266 96.0191489 316.442488 96.8925064 315.626912 97.8390496L314.706563 98.8447705C313.923348 99.7006297 313.092324 100.677437 313.125373 101.824529 313.137625 102.250168 313.271649 102.663167 313.324141 103.08588 313.532381 104.762729 312.482335 106.605791 313.346704 108.069123 313.596603 108.492186 313.983121 108.822975 314.258613 109.230616 314.60914 109.75311 314.764421 110.377572 314.698288 110.998772 315.627162 111.035938 316.389129 110.223458 316.680455 109.361752 316.971781 108.500047 316.932375 107.569158 317.074254 106.672385 317.216133 105.775611 317.614644 104.826048 318.44948 104.426802 320.230749 103.574944 322.27618 105.789737 324.177457 105.237819 325.504965 104.85245 326.205066 103.246197 327.562295 102.97685 328.533709 102.784069 329.468859 103.347426 330.371805 103.746723 331.274751 104.14602 332.491897 104.330853 333.130359 103.590707 333.553069 103.100673 333.598186 102.315405 334.15885 101.982403 334.830789 101.583309 335.672274 102.138975 336.181016 102.724503 336.689757 103.310031 337.251693 104.026015 338.037938 104.004704 339.080996 103.97643 339.879941 102.620551 340.869993 102.942219 341.987465 103.305289 341.473521 105.050677 342.15154 105.990636 342.724757 106.785311 343.925164 106.738509 344.911752 106.607217 345.249945 106.640658 345.582021 106.502163 345.791029 106.240508 346 105.978852 346.056662 105.630738 345.940959 105.318764L345.528871 99.9849947C345.527072 99.6173966 345.444666 99.2544343 345.287191 98.9205085 345.000295 98.4131979 344.406182 98.1562746 344.002171 97.7316797 343.152712 96.8389449 343.193537 95.2738867 342.137232 94.6247133 341.588755 94.2876316 340.871317 94.2977509 340.326718 93.9547264 339.628328 93.5148193 339.40332 92.6338044 338.914089 91.9779063 338.214685 91.0402329 336.991912 90.6054912 335.809912 90.4862035 334.627912 90.3669158 333.434903 90.5107841 332.247102 90.4729749 329.832315 90.3960823 327.417598 89.7327419 324.991035 90.1210547 322.873907 90.459898 321.985071 92.2133309 320.551122 93.5620624z" id="Path" fill="#2f2e41"/></g></g></g></g></svg>